<?xml version="1.0" encoding="utf-8"?>
<!-- Generator: Adobe Illustrator 21.1.0, SVG Export Plug-In . SVG Version: 6.00 Build 0)  -->
<svg version="1.1" id="Layer_1" xmlns="http://www.w3.org/2000/svg" xmlns:xlink="http://www.w3.org/1999/xlink" x="0px" y="0px"
	 viewBox="0 0 950 40" style="enable-background:new 0 0 950 40;" xml:space="preserve">
<style type="text/css">
	.st0{fill:none;stroke:#D8D8D8;stroke-miterlimit:10;}
	.st1{fill:none;}
	.st2{fill:none;stroke:#000000;stroke-miterlimit:10;}
</style>
<line class="st0" x1="38.8" y1="0.6" x2="0" y2="39.4"/>
<line class="st0" x1="58.2" y1="0.6" x2="19.4" y2="39.4"/>
<line class="st0" x1="77.6" y1="0.6" x2="38.8" y2="39.4"/>
<line class="st0" x1="96.9" y1="0.6" x2="58.2" y2="39.4"/>
<line class="st0" x1="116.3" y1="0.6" x2="77.6" y2="39.4"/>
<line class="st0" x1="135.7" y1="0.6" x2="96.9" y2="39.4"/>
<line class="st0" x1="155.1" y1="0.6" x2="116.3" y2="39.4"/>
<line class="st0" x1="174.5" y1="0.6" x2="135.7" y2="39.4"/>
<line class="st0" x1="193.9" y1="0.6" x2="155.1" y2="39.4"/>
<line class="st0" x1="213.3" y1="0.6" x2="174.5" y2="39.4"/>
<line class="st0" x1="232.7" y1="0.6" x2="193.9" y2="39.4"/>
<line class="st0" x1="252" y1="0.6" x2="213.3" y2="39.4"/>
<line class="st0" x1="271.4" y1="0.6" x2="232.7" y2="39.4"/>
<line class="st0" x1="290.8" y1="0.6" x2="252" y2="39.4"/>
<line class="st0" x1="310.2" y1="0.6" x2="271.4" y2="39.4"/>
<line class="st0" x1="329.6" y1="0.6" x2="290.8" y2="39.4"/>
<line class="st0" x1="349" y1="0.6" x2="310.2" y2="39.4"/>
<line class="st0" x1="368.4" y1="0.6" x2="329.6" y2="39.4"/>
<line class="st0" x1="387.8" y1="0.6" x2="349" y2="39.4"/>
<line class="st0" x1="407.1" y1="0.6" x2="368.4" y2="39.4"/>
<line class="st0" x1="426.5" y1="0.6" x2="387.8" y2="39.4"/>
<line class="st0" x1="445.9" y1="0.6" x2="407.1" y2="39.4"/>
<line class="st0" x1="465.3" y1="0.6" x2="426.5" y2="39.4"/>
<line class="st0" x1="484.7" y1="0.6" x2="445.9" y2="39.4"/>
<line class="st0" x1="504.1" y1="0.6" x2="465.3" y2="39.4"/>
<line class="st0" x1="523.5" y1="0.6" x2="484.7" y2="39.4"/>
<line class="st0" x1="542.9" y1="0.6" x2="504.1" y2="39.4"/>
<line class="st0" x1="562.2" y1="0.6" x2="523.5" y2="39.4"/>
<line class="st0" x1="581.6" y1="0.6" x2="542.9" y2="39.4"/>
<line class="st0" x1="601" y1="0.6" x2="562.2" y2="39.4"/>
<line class="st0" x1="620.4" y1="0.6" x2="581.6" y2="39.4"/>
<line class="st0" x1="639.8" y1="0.6" x2="601" y2="39.4"/>
<line class="st0" x1="659.2" y1="0.6" x2="620.4" y2="39.4"/>
<line class="st0" x1="678.6" y1="0.6" x2="639.8" y2="39.4"/>
<line class="st0" x1="58.2" y1="0.6" x2="19.4" y2="39.4"/>
<line class="st0" x1="77.6" y1="0.6" x2="38.8" y2="39.4"/>
<line class="st0" x1="96.9" y1="0.6" x2="58.2" y2="39.4"/>
<line class="st0" x1="116.3" y1="0.6" x2="77.6" y2="39.4"/>
<line class="st0" x1="135.7" y1="0.6" x2="96.9" y2="39.4"/>
<line class="st0" x1="155.1" y1="0.6" x2="116.3" y2="39.4"/>
<line class="st0" x1="174.5" y1="0.6" x2="135.7" y2="39.4"/>
<line class="st0" x1="193.9" y1="0.6" x2="155.1" y2="39.4"/>
<line class="st0" x1="213.3" y1="0.6" x2="174.5" y2="39.4"/>
<line class="st0" x1="232.7" y1="0.6" x2="193.9" y2="39.4"/>
<line class="st0" x1="252" y1="0.6" x2="213.3" y2="39.4"/>
<line class="st0" x1="271.4" y1="0.6" x2="232.7" y2="39.4"/>
<line class="st0" x1="290.8" y1="0.6" x2="252" y2="39.4"/>
<line class="st0" x1="310.2" y1="0.6" x2="271.4" y2="39.4"/>
<line class="st0" x1="329.6" y1="0.6" x2="290.8" y2="39.4"/>
<line class="st0" x1="349" y1="0.6" x2="310.2" y2="39.4"/>
<line class="st0" x1="368.4" y1="0.6" x2="329.6" y2="39.4"/>
<line class="st0" x1="387.8" y1="0.6" x2="349" y2="39.4"/>
<line class="st0" x1="407.1" y1="0.6" x2="368.4" y2="39.4"/>
<line class="st0" x1="426.5" y1="0.6" x2="387.8" y2="39.4"/>
<line class="st0" x1="445.9" y1="0.6" x2="407.1" y2="39.4"/>
<line class="st0" x1="465.3" y1="0.6" x2="426.5" y2="39.4"/>
<line class="st0" x1="484.7" y1="0.6" x2="445.9" y2="39.4"/>
<line class="st0" x1="504.1" y1="0.6" x2="465.3" y2="39.4"/>
<line class="st0" x1="523.5" y1="0.6" x2="484.7" y2="39.4"/>
<line class="st0" x1="542.9" y1="0.6" x2="504.1" y2="39.4"/>
<line class="st0" x1="562.2" y1="0.6" x2="523.5" y2="39.4"/>
<line class="st0" x1="581.6" y1="0.6" x2="542.9" y2="39.4"/>
<line class="st0" x1="601" y1="0.6" x2="562.2" y2="39.4"/>
<line class="st0" x1="620.4" y1="0.6" x2="581.6" y2="39.4"/>
<line class="st0" x1="639.8" y1="0.6" x2="601" y2="39.4"/>
<line class="st0" x1="659.2" y1="0.6" x2="620.4" y2="39.4"/>
<line class="st0" x1="678.6" y1="0.6" x2="639.8" y2="39.4"/>
<line class="st0" x1="698" y1="0.6" x2="659.2" y2="39.4"/>
<line class="st0" x1="77.6" y1="0.6" x2="38.8" y2="39.4"/>
<line class="st0" x1="96.9" y1="0.6" x2="58.2" y2="39.4"/>
<line class="st0" x1="116.3" y1="0.6" x2="77.6" y2="39.4"/>
<line class="st0" x1="135.7" y1="0.6" x2="96.9" y2="39.4"/>
<line class="st0" x1="155.1" y1="0.6" x2="116.3" y2="39.4"/>
<line class="st0" x1="174.5" y1="0.6" x2="135.7" y2="39.4"/>
<line class="st0" x1="193.9" y1="0.6" x2="155.1" y2="39.4"/>
<line class="st0" x1="213.3" y1="0.6" x2="174.5" y2="39.4"/>
<line class="st0" x1="232.7" y1="0.6" x2="193.9" y2="39.4"/>
<line class="st0" x1="252" y1="0.6" x2="213.3" y2="39.4"/>
<line class="st0" x1="271.4" y1="0.6" x2="232.7" y2="39.4"/>
<line class="st0" x1="290.8" y1="0.6" x2="252" y2="39.4"/>
<line class="st0" x1="310.2" y1="0.6" x2="271.4" y2="39.4"/>
<line class="st0" x1="329.6" y1="0.6" x2="290.8" y2="39.4"/>
<line class="st0" x1="349" y1="0.6" x2="310.2" y2="39.4"/>
<line class="st0" x1="368.4" y1="0.6" x2="329.6" y2="39.4"/>
<line class="st0" x1="387.8" y1="0.6" x2="349" y2="39.4"/>
<line class="st0" x1="407.1" y1="0.6" x2="368.4" y2="39.4"/>
<line class="st0" x1="426.5" y1="0.6" x2="387.8" y2="39.4"/>
<line class="st0" x1="445.9" y1="0.6" x2="407.1" y2="39.4"/>
<line class="st0" x1="465.3" y1="0.6" x2="426.5" y2="39.4"/>
<line class="st0" x1="484.7" y1="0.6" x2="445.9" y2="39.4"/>
<line class="st0" x1="504.1" y1="0.6" x2="465.3" y2="39.4"/>
<line class="st0" x1="523.5" y1="0.6" x2="484.7" y2="39.4"/>
<line class="st0" x1="542.9" y1="0.6" x2="504.1" y2="39.4"/>
<line class="st0" x1="562.2" y1="0.6" x2="523.5" y2="39.4"/>
<line class="st0" x1="581.6" y1="0.6" x2="542.9" y2="39.4"/>
<line class="st0" x1="601" y1="0.6" x2="562.2" y2="39.4"/>
<line class="st0" x1="620.4" y1="0.6" x2="581.6" y2="39.4"/>
<line class="st0" x1="639.8" y1="0.6" x2="601" y2="39.4"/>
<line class="st0" x1="659.2" y1="0.6" x2="620.4" y2="39.4"/>
<line class="st0" x1="678.6" y1="0.6" x2="639.8" y2="39.4"/>
<line class="st0" x1="698" y1="0.6" x2="659.2" y2="39.4"/>
<line class="st0" x1="717.3" y1="0.6" x2="678.6" y2="39.4"/>
<line class="st1" x1="22.8" y1="25.7" x2="504.1" y2="25.7"/>
<line class="st0" x1="96.9" y1="0.6" x2="58.2" y2="39.4"/>
<line class="st0" x1="116.3" y1="0.6" x2="77.6" y2="39.4"/>
<line class="st0" x1="135.7" y1="0.6" x2="96.9" y2="39.4"/>
<line class="st0" x1="155.1" y1="0.6" x2="116.3" y2="39.4"/>
<line class="st0" x1="174.5" y1="0.6" x2="135.7" y2="39.4"/>
<line class="st0" x1="193.9" y1="0.6" x2="155.1" y2="39.4"/>
<line class="st0" x1="213.3" y1="0.6" x2="174.5" y2="39.4"/>
<line class="st0" x1="232.7" y1="0.6" x2="193.9" y2="39.4"/>
<line class="st0" x1="252" y1="0.6" x2="213.3" y2="39.4"/>
<line class="st0" x1="271.4" y1="0.6" x2="232.7" y2="39.4"/>
<line class="st0" x1="290.8" y1="0.6" x2="252" y2="39.4"/>
<line class="st0" x1="310.2" y1="0.6" x2="271.4" y2="39.4"/>
<line class="st0" x1="329.6" y1="0.6" x2="290.8" y2="39.4"/>
<line class="st0" x1="349" y1="0.6" x2="310.2" y2="39.4"/>
<line class="st0" x1="368.4" y1="0.6" x2="329.6" y2="39.4"/>
<line class="st0" x1="387.8" y1="0.6" x2="349" y2="39.4"/>
<line class="st0" x1="407.1" y1="0.6" x2="368.4" y2="39.4"/>
<line class="st0" x1="426.5" y1="0.6" x2="387.8" y2="39.4"/>
<line class="st0" x1="445.9" y1="0.6" x2="407.1" y2="39.4"/>
<line class="st0" x1="465.3" y1="0.6" x2="426.5" y2="39.4"/>
<line class="st0" x1="484.7" y1="0.6" x2="445.9" y2="39.4"/>
<line class="st0" x1="504.1" y1="0.6" x2="465.3" y2="39.4"/>
<line class="st0" x1="523.5" y1="0.6" x2="484.7" y2="39.4"/>
<line class="st0" x1="542.9" y1="0.6" x2="504.1" y2="39.4"/>
<line class="st0" x1="562.2" y1="0.6" x2="523.5" y2="39.4"/>
<line class="st0" x1="581.6" y1="0.6" x2="542.9" y2="39.4"/>
<line class="st0" x1="601" y1="0.6" x2="562.2" y2="39.4"/>
<line class="st0" x1="620.4" y1="0.6" x2="581.6" y2="39.4"/>
<line class="st0" x1="639.8" y1="0.6" x2="601" y2="39.4"/>
<line class="st0" x1="659.2" y1="0.6" x2="620.4" y2="39.4"/>
<line class="st0" x1="678.6" y1="0.6" x2="639.8" y2="39.4"/>
<line class="st0" x1="698" y1="0.6" x2="659.2" y2="39.4"/>
<line class="st0" x1="717.3" y1="0.6" x2="678.6" y2="39.4"/>
<line class="st0" x1="736.7" y1="0.6" x2="698" y2="39.4"/>
<line class="st1" x1="42.2" y1="25.7" x2="523.5" y2="25.7"/>
<line class="st0" x1="116.3" y1="0.6" x2="77.6" y2="39.4"/>
<line class="st0" x1="135.7" y1="0.6" x2="96.9" y2="39.4"/>
<line class="st0" x1="155.1" y1="0.6" x2="116.3" y2="39.4"/>
<line class="st0" x1="174.5" y1="0.6" x2="135.7" y2="39.4"/>
<line class="st0" x1="193.9" y1="0.6" x2="155.1" y2="39.4"/>
<line class="st0" x1="213.3" y1="0.6" x2="174.5" y2="39.4"/>
<line class="st0" x1="232.7" y1="0.6" x2="193.9" y2="39.4"/>
<line class="st0" x1="252" y1="0.6" x2="213.3" y2="39.4"/>
<line class="st0" x1="271.4" y1="0.6" x2="232.7" y2="39.4"/>
<line class="st0" x1="290.8" y1="0.6" x2="252" y2="39.4"/>
<line class="st0" x1="310.2" y1="0.6" x2="271.4" y2="39.4"/>
<line class="st0" x1="329.6" y1="0.6" x2="290.8" y2="39.4"/>
<line class="st0" x1="349" y1="0.6" x2="310.2" y2="39.4"/>
<line class="st0" x1="368.4" y1="0.6" x2="329.6" y2="39.4"/>
<line class="st0" x1="387.8" y1="0.6" x2="349" y2="39.4"/>
<line class="st0" x1="407.1" y1="0.6" x2="368.4" y2="39.4"/>
<line class="st0" x1="426.5" y1="0.6" x2="387.8" y2="39.4"/>
<line class="st0" x1="445.9" y1="0.6" x2="407.1" y2="39.4"/>
<line class="st0" x1="465.3" y1="0.6" x2="426.5" y2="39.4"/>
<line class="st0" x1="484.7" y1="0.6" x2="445.9" y2="39.4"/>
<line class="st0" x1="504.1" y1="0.6" x2="465.3" y2="39.4"/>
<line class="st0" x1="523.5" y1="0.6" x2="484.7" y2="39.4"/>
<line class="st0" x1="542.9" y1="0.6" x2="504.1" y2="39.4"/>
<line class="st0" x1="562.2" y1="0.6" x2="523.5" y2="39.4"/>
<line class="st0" x1="581.6" y1="0.6" x2="542.9" y2="39.4"/>
<line class="st0" x1="601" y1="0.6" x2="562.2" y2="39.4"/>
<line class="st0" x1="620.4" y1="0.6" x2="581.6" y2="39.4"/>
<line class="st0" x1="639.8" y1="0.6" x2="601" y2="39.4"/>
<line class="st0" x1="659.2" y1="0.6" x2="620.4" y2="39.4"/>
<line class="st0" x1="678.6" y1="0.6" x2="639.8" y2="39.4"/>
<line class="st0" x1="698" y1="0.6" x2="659.2" y2="39.4"/>
<line class="st0" x1="717.3" y1="0.6" x2="678.6" y2="39.4"/>
<line class="st0" x1="736.7" y1="0.6" x2="698" y2="39.4"/>
<line class="st0" x1="756.1" y1="0.6" x2="717.3" y2="39.4"/>
<line class="st1" x1="61.6" y1="25.7" x2="542.9" y2="25.7"/>
<line class="st0" x1="135.7" y1="0.6" x2="96.9" y2="39.4"/>
<line class="st0" x1="155.1" y1="0.6" x2="116.3" y2="39.4"/>
<line class="st0" x1="174.5" y1="0.6" x2="135.7" y2="39.4"/>
<line class="st0" x1="193.9" y1="0.6" x2="155.1" y2="39.4"/>
<line class="st0" x1="213.3" y1="0.6" x2="174.5" y2="39.4"/>
<line class="st0" x1="232.7" y1="0.6" x2="193.9" y2="39.4"/>
<line class="st0" x1="252" y1="0.6" x2="213.3" y2="39.4"/>
<line class="st0" x1="271.4" y1="0.6" x2="232.7" y2="39.4"/>
<line class="st0" x1="290.8" y1="0.6" x2="252" y2="39.4"/>
<line class="st0" x1="310.2" y1="0.6" x2="271.4" y2="39.4"/>
<line class="st0" x1="329.6" y1="0.6" x2="290.8" y2="39.4"/>
<line class="st0" x1="349" y1="0.6" x2="310.2" y2="39.4"/>
<line class="st0" x1="368.4" y1="0.6" x2="329.6" y2="39.4"/>
<line class="st0" x1="387.8" y1="0.6" x2="349" y2="39.4"/>
<line class="st0" x1="407.1" y1="0.6" x2="368.4" y2="39.4"/>
<line class="st0" x1="426.5" y1="0.6" x2="387.8" y2="39.4"/>
<line class="st0" x1="445.9" y1="0.6" x2="407.1" y2="39.4"/>
<line class="st0" x1="465.3" y1="0.6" x2="426.5" y2="39.4"/>
<line class="st0" x1="484.7" y1="0.6" x2="445.9" y2="39.4"/>
<line class="st0" x1="504.1" y1="0.6" x2="465.3" y2="39.4"/>
<line class="st0" x1="523.5" y1="0.6" x2="484.7" y2="39.4"/>
<line class="st0" x1="542.9" y1="0.6" x2="504.1" y2="39.4"/>
<line class="st0" x1="562.2" y1="0.6" x2="523.5" y2="39.4"/>
<line class="st0" x1="581.6" y1="0.6" x2="542.9" y2="39.4"/>
<line class="st0" x1="601" y1="0.6" x2="562.2" y2="39.4"/>
<line class="st0" x1="620.4" y1="0.6" x2="581.6" y2="39.4"/>
<line class="st0" x1="639.8" y1="0.6" x2="601" y2="39.4"/>
<line class="st0" x1="659.2" y1="0.6" x2="620.4" y2="39.4"/>
<line class="st0" x1="678.6" y1="0.6" x2="639.8" y2="39.4"/>
<line class="st0" x1="698" y1="0.6" x2="659.2" y2="39.4"/>
<line class="st0" x1="717.3" y1="0.6" x2="678.6" y2="39.4"/>
<line class="st0" x1="736.7" y1="0.6" x2="698" y2="39.4"/>
<line class="st0" x1="756.1" y1="0.6" x2="717.3" y2="39.4"/>
<line class="st0" x1="775.5" y1="0.6" x2="736.7" y2="39.4"/>
<line class="st1" x1="81" y1="25.7" x2="562.2" y2="25.7"/>
<line class="st0" x1="155.1" y1="0.6" x2="116.3" y2="39.4"/>
<line class="st0" x1="174.5" y1="0.6" x2="135.7" y2="39.4"/>
<line class="st0" x1="193.9" y1="0.6" x2="155.1" y2="39.4"/>
<line class="st0" x1="213.3" y1="0.6" x2="174.5" y2="39.4"/>
<line class="st0" x1="232.7" y1="0.6" x2="193.9" y2="39.4"/>
<line class="st0" x1="252" y1="0.6" x2="213.3" y2="39.4"/>
<line class="st0" x1="271.4" y1="0.6" x2="232.7" y2="39.4"/>
<line class="st0" x1="290.8" y1="0.6" x2="252" y2="39.4"/>
<line class="st0" x1="310.2" y1="0.6" x2="271.4" y2="39.4"/>
<line class="st0" x1="329.6" y1="0.6" x2="290.8" y2="39.4"/>
<line class="st0" x1="349" y1="0.6" x2="310.2" y2="39.4"/>
<line class="st0" x1="368.4" y1="0.6" x2="329.6" y2="39.4"/>
<line class="st0" x1="387.8" y1="0.6" x2="349" y2="39.4"/>
<line class="st0" x1="407.1" y1="0.6" x2="368.4" y2="39.4"/>
<line class="st0" x1="426.5" y1="0.6" x2="387.8" y2="39.4"/>
<line class="st0" x1="445.9" y1="0.6" x2="407.1" y2="39.4"/>
<line class="st0" x1="465.3" y1="0.6" x2="426.5" y2="39.4"/>
<line class="st0" x1="484.7" y1="0.6" x2="445.9" y2="39.4"/>
<line class="st0" x1="504.1" y1="0.6" x2="465.3" y2="39.4"/>
<line class="st0" x1="523.5" y1="0.6" x2="484.7" y2="39.4"/>
<line class="st0" x1="542.9" y1="0.6" x2="504.1" y2="39.4"/>
<line class="st0" x1="562.2" y1="0.6" x2="523.5" y2="39.4"/>
<line class="st0" x1="581.6" y1="0.6" x2="542.9" y2="39.4"/>
<line class="st0" x1="601" y1="0.6" x2="562.2" y2="39.4"/>
<line class="st0" x1="620.4" y1="0.6" x2="581.6" y2="39.4"/>
<line class="st0" x1="639.8" y1="0.6" x2="601" y2="39.4"/>
<line class="st0" x1="659.2" y1="0.6" x2="620.4" y2="39.4"/>
<line class="st0" x1="678.6" y1="0.6" x2="639.8" y2="39.4"/>
<line class="st0" x1="698" y1="0.6" x2="659.2" y2="39.4"/>
<line class="st0" x1="717.3" y1="0.6" x2="678.6" y2="39.4"/>
<line class="st0" x1="736.7" y1="0.6" x2="698" y2="39.4"/>
<line class="st0" x1="756.1" y1="0.6" x2="717.3" y2="39.4"/>
<line class="st0" x1="775.5" y1="0.6" x2="736.7" y2="39.4"/>
<line class="st0" x1="794.9" y1="0.6" x2="756.1" y2="39.4"/>
<line class="st1" x1="100.4" y1="25.7" x2="581.6" y2="25.7"/>
<line class="st0" x1="174.5" y1="0.6" x2="135.7" y2="39.4"/>
<line class="st0" x1="193.9" y1="0.6" x2="155.1" y2="39.4"/>
<line class="st0" x1="213.3" y1="0.6" x2="174.5" y2="39.4"/>
<line class="st0" x1="232.7" y1="0.6" x2="193.9" y2="39.4"/>
<line class="st0" x1="252" y1="0.6" x2="213.3" y2="39.4"/>
<line class="st0" x1="271.4" y1="0.6" x2="232.7" y2="39.4"/>
<line class="st0" x1="290.8" y1="0.6" x2="252" y2="39.4"/>
<line class="st0" x1="310.2" y1="0.6" x2="271.4" y2="39.4"/>
<line class="st0" x1="329.6" y1="0.6" x2="290.8" y2="39.4"/>
<line class="st0" x1="349" y1="0.6" x2="310.2" y2="39.4"/>
<line class="st0" x1="368.4" y1="0.6" x2="329.6" y2="39.4"/>
<line class="st0" x1="387.8" y1="0.6" x2="349" y2="39.4"/>
<line class="st0" x1="407.1" y1="0.6" x2="368.4" y2="39.4"/>
<line class="st0" x1="426.5" y1="0.6" x2="387.8" y2="39.4"/>
<line class="st0" x1="445.9" y1="0.6" x2="407.1" y2="39.4"/>
<line class="st0" x1="465.3" y1="0.6" x2="426.5" y2="39.4"/>
<line class="st0" x1="484.7" y1="0.6" x2="445.9" y2="39.4"/>
<line class="st0" x1="504.1" y1="0.6" x2="465.3" y2="39.4"/>
<line class="st0" x1="523.5" y1="0.6" x2="484.7" y2="39.4"/>
<line class="st0" x1="542.9" y1="0.6" x2="504.1" y2="39.4"/>
<line class="st0" x1="562.2" y1="0.6" x2="523.5" y2="39.4"/>
<line class="st0" x1="581.6" y1="0.6" x2="542.9" y2="39.4"/>
<line class="st0" x1="601" y1="0.6" x2="562.2" y2="39.4"/>
<line class="st0" x1="620.4" y1="0.6" x2="581.6" y2="39.4"/>
<line class="st0" x1="639.8" y1="0.6" x2="601" y2="39.4"/>
<line class="st0" x1="659.2" y1="0.6" x2="620.4" y2="39.4"/>
<line class="st0" x1="678.6" y1="0.6" x2="639.8" y2="39.4"/>
<line class="st0" x1="698" y1="0.6" x2="659.2" y2="39.4"/>
<line class="st0" x1="717.3" y1="0.6" x2="678.6" y2="39.4"/>
<line class="st0" x1="736.7" y1="0.6" x2="698" y2="39.4"/>
<line class="st0" x1="756.1" y1="0.6" x2="717.3" y2="39.4"/>
<line class="st0" x1="775.5" y1="0.6" x2="736.7" y2="39.4"/>
<line class="st0" x1="794.9" y1="0.6" x2="756.1" y2="39.4"/>
<line class="st0" x1="814.3" y1="0.6" x2="775.5" y2="39.4"/>
<line class="st1" x1="119.7" y1="25.7" x2="601" y2="25.7"/>
<line class="st0" x1="193.9" y1="0.6" x2="155.1" y2="39.4"/>
<line class="st0" x1="213.3" y1="0.6" x2="174.5" y2="39.4"/>
<line class="st0" x1="232.7" y1="0.6" x2="193.9" y2="39.4"/>
<line class="st0" x1="252" y1="0.6" x2="213.3" y2="39.4"/>
<line class="st0" x1="271.4" y1="0.6" x2="232.7" y2="39.4"/>
<line class="st0" x1="290.8" y1="0.6" x2="252" y2="39.4"/>
<line class="st0" x1="310.2" y1="0.6" x2="271.4" y2="39.4"/>
<line class="st0" x1="329.6" y1="0.6" x2="290.8" y2="39.4"/>
<line class="st0" x1="349" y1="0.6" x2="310.2" y2="39.4"/>
<line class="st0" x1="368.4" y1="0.6" x2="329.6" y2="39.4"/>
<line class="st0" x1="387.8" y1="0.6" x2="349" y2="39.4"/>
<line class="st0" x1="407.1" y1="0.6" x2="368.4" y2="39.4"/>
<line class="st0" x1="426.5" y1="0.6" x2="387.8" y2="39.4"/>
<line class="st0" x1="445.9" y1="0.6" x2="407.1" y2="39.4"/>
<line class="st0" x1="465.3" y1="0.6" x2="426.5" y2="39.4"/>
<line class="st0" x1="484.7" y1="0.6" x2="445.9" y2="39.4"/>
<line class="st0" x1="504.1" y1="0.6" x2="465.3" y2="39.4"/>
<line class="st0" x1="523.5" y1="0.6" x2="484.7" y2="39.4"/>
<line class="st0" x1="542.9" y1="0.6" x2="504.1" y2="39.4"/>
<line class="st0" x1="562.2" y1="0.6" x2="523.5" y2="39.4"/>
<line class="st0" x1="581.6" y1="0.6" x2="542.9" y2="39.4"/>
<line class="st0" x1="601" y1="0.6" x2="562.2" y2="39.4"/>
<line class="st0" x1="620.4" y1="0.6" x2="581.6" y2="39.4"/>
<line class="st0" x1="639.8" y1="0.6" x2="601" y2="39.4"/>
<line class="st0" x1="659.2" y1="0.6" x2="620.4" y2="39.4"/>
<line class="st0" x1="678.6" y1="0.6" x2="639.8" y2="39.4"/>
<line class="st0" x1="698" y1="0.6" x2="659.2" y2="39.4"/>
<line class="st0" x1="717.3" y1="0.6" x2="678.6" y2="39.4"/>
<line class="st0" x1="736.7" y1="0.6" x2="698" y2="39.4"/>
<line class="st0" x1="756.1" y1="0.6" x2="717.3" y2="39.4"/>
<line class="st0" x1="775.5" y1="0.6" x2="736.7" y2="39.4"/>
<line class="st0" x1="794.9" y1="0.6" x2="756.1" y2="39.4"/>
<line class="st0" x1="814.3" y1="0.6" x2="775.5" y2="39.4"/>
<line class="st0" x1="833.7" y1="0.6" x2="794.9" y2="39.4"/>
<line class="st1" x1="139.1" y1="25.7" x2="620.4" y2="25.7"/>
<line class="st0" x1="213.3" y1="0.6" x2="174.5" y2="39.4"/>
<line class="st0" x1="232.7" y1="0.6" x2="193.9" y2="39.4"/>
<line class="st0" x1="252" y1="0.6" x2="213.3" y2="39.4"/>
<line class="st0" x1="271.4" y1="0.6" x2="232.7" y2="39.4"/>
<line class="st0" x1="290.8" y1="0.6" x2="252" y2="39.4"/>
<line class="st0" x1="310.2" y1="0.6" x2="271.4" y2="39.4"/>
<line class="st0" x1="329.6" y1="0.6" x2="290.8" y2="39.4"/>
<line class="st0" x1="349" y1="0.6" x2="310.2" y2="39.4"/>
<line class="st0" x1="368.4" y1="0.6" x2="329.6" y2="39.4"/>
<line class="st0" x1="387.8" y1="0.6" x2="349" y2="39.4"/>
<line class="st0" x1="407.1" y1="0.6" x2="368.4" y2="39.4"/>
<line class="st0" x1="426.5" y1="0.6" x2="387.8" y2="39.4"/>
<line class="st0" x1="445.9" y1="0.6" x2="407.1" y2="39.4"/>
<line class="st0" x1="465.3" y1="0.6" x2="426.5" y2="39.4"/>
<line class="st0" x1="484.7" y1="0.6" x2="445.9" y2="39.4"/>
<line class="st0" x1="504.1" y1="0.6" x2="465.3" y2="39.4"/>
<line class="st0" x1="523.5" y1="0.6" x2="484.7" y2="39.4"/>
<line class="st0" x1="542.9" y1="0.6" x2="504.1" y2="39.4"/>
<line class="st0" x1="562.2" y1="0.6" x2="523.5" y2="39.4"/>
<line class="st0" x1="581.6" y1="0.6" x2="542.9" y2="39.4"/>
<line class="st0" x1="601" y1="0.6" x2="562.2" y2="39.4"/>
<line class="st0" x1="620.4" y1="0.6" x2="581.6" y2="39.4"/>
<line class="st0" x1="639.8" y1="0.6" x2="601" y2="39.4"/>
<line class="st0" x1="659.2" y1="0.6" x2="620.4" y2="39.4"/>
<line class="st0" x1="678.6" y1="0.6" x2="639.8" y2="39.4"/>
<line class="st0" x1="698" y1="0.6" x2="659.2" y2="39.4"/>
<line class="st0" x1="717.3" y1="0.6" x2="678.6" y2="39.4"/>
<line class="st0" x1="736.7" y1="0.6" x2="698" y2="39.4"/>
<line class="st0" x1="756.1" y1="0.6" x2="717.3" y2="39.4"/>
<line class="st0" x1="775.5" y1="0.6" x2="736.7" y2="39.4"/>
<line class="st0" x1="794.9" y1="0.6" x2="756.1" y2="39.4"/>
<line class="st0" x1="814.3" y1="0.6" x2="775.5" y2="39.4"/>
<line class="st0" x1="833.7" y1="0.6" x2="794.9" y2="39.4"/>
<line class="st0" x1="853.1" y1="0.6" x2="814.3" y2="39.4"/>
<line class="st1" x1="158.5" y1="25.7" x2="639.8" y2="25.7"/>
<line class="st0" x1="232.7" y1="0.6" x2="193.9" y2="39.4"/>
<line class="st0" x1="252" y1="0.6" x2="213.3" y2="39.4"/>
<line class="st0" x1="271.4" y1="0.6" x2="232.7" y2="39.4"/>
<line class="st0" x1="290.8" y1="0.6" x2="252" y2="39.4"/>
<line class="st0" x1="310.2" y1="0.6" x2="271.4" y2="39.4"/>
<line class="st0" x1="329.6" y1="0.6" x2="290.8" y2="39.4"/>
<line class="st0" x1="349" y1="0.6" x2="310.2" y2="39.4"/>
<line class="st0" x1="368.4" y1="0.6" x2="329.6" y2="39.4"/>
<line class="st0" x1="387.8" y1="0.6" x2="349" y2="39.4"/>
<line class="st0" x1="407.1" y1="0.6" x2="368.4" y2="39.4"/>
<line class="st0" x1="426.5" y1="0.6" x2="387.8" y2="39.4"/>
<line class="st0" x1="445.9" y1="0.6" x2="407.1" y2="39.4"/>
<line class="st0" x1="465.3" y1="0.6" x2="426.5" y2="39.4"/>
<line class="st0" x1="484.7" y1="0.6" x2="445.9" y2="39.4"/>
<line class="st0" x1="504.1" y1="0.6" x2="465.3" y2="39.4"/>
<line class="st0" x1="523.5" y1="0.6" x2="484.7" y2="39.4"/>
<line class="st0" x1="542.9" y1="0.6" x2="504.1" y2="39.4"/>
<line class="st0" x1="562.2" y1="0.6" x2="523.5" y2="39.4"/>
<line class="st0" x1="581.6" y1="0.6" x2="542.9" y2="39.4"/>
<line class="st0" x1="601" y1="0.6" x2="562.2" y2="39.4"/>
<line class="st0" x1="620.4" y1="0.6" x2="581.6" y2="39.4"/>
<line class="st0" x1="639.8" y1="0.6" x2="601" y2="39.4"/>
<line class="st0" x1="659.2" y1="0.6" x2="620.4" y2="39.4"/>
<line class="st0" x1="678.6" y1="0.6" x2="639.8" y2="39.4"/>
<line class="st0" x1="698" y1="0.6" x2="659.2" y2="39.4"/>
<line class="st0" x1="717.3" y1="0.6" x2="678.6" y2="39.4"/>
<line class="st0" x1="736.7" y1="0.6" x2="698" y2="39.4"/>
<line class="st0" x1="756.1" y1="0.6" x2="717.3" y2="39.4"/>
<line class="st0" x1="775.5" y1="0.6" x2="736.7" y2="39.4"/>
<line class="st0" x1="794.9" y1="0.6" x2="756.1" y2="39.4"/>
<line class="st0" x1="814.3" y1="0.6" x2="775.5" y2="39.4"/>
<line class="st0" x1="833.7" y1="0.6" x2="794.9" y2="39.4"/>
<line class="st0" x1="853.1" y1="0.6" x2="814.3" y2="39.4"/>
<line class="st0" x1="872.4" y1="0.6" x2="833.7" y2="39.4"/>
<line class="st1" x1="177.9" y1="25.7" x2="659.2" y2="25.7"/>
<line class="st0" x1="252" y1="0.6" x2="213.3" y2="39.4"/>
<line class="st0" x1="271.4" y1="0.6" x2="232.7" y2="39.4"/>
<line class="st0" x1="290.8" y1="0.6" x2="252" y2="39.4"/>
<line class="st0" x1="310.2" y1="0.6" x2="271.4" y2="39.4"/>
<line class="st0" x1="329.6" y1="0.6" x2="290.8" y2="39.4"/>
<line class="st0" x1="349" y1="0.6" x2="310.2" y2="39.4"/>
<line class="st0" x1="368.4" y1="0.6" x2="329.6" y2="39.4"/>
<line class="st0" x1="387.8" y1="0.6" x2="349" y2="39.4"/>
<line class="st0" x1="407.1" y1="0.6" x2="368.4" y2="39.4"/>
<line class="st0" x1="426.5" y1="0.6" x2="387.8" y2="39.4"/>
<line class="st0" x1="445.9" y1="0.6" x2="407.1" y2="39.4"/>
<line class="st0" x1="465.3" y1="0.6" x2="426.5" y2="39.4"/>
<line class="st0" x1="484.7" y1="0.6" x2="445.9" y2="39.4"/>
<line class="st0" x1="504.1" y1="0.6" x2="465.3" y2="39.4"/>
<line class="st0" x1="523.5" y1="0.6" x2="484.7" y2="39.4"/>
<line class="st0" x1="542.9" y1="0.6" x2="504.1" y2="39.4"/>
<line class="st0" x1="562.2" y1="0.6" x2="523.5" y2="39.4"/>
<line class="st0" x1="581.6" y1="0.6" x2="542.9" y2="39.4"/>
<line class="st0" x1="601" y1="0.6" x2="562.2" y2="39.4"/>
<line class="st0" x1="620.4" y1="0.6" x2="581.6" y2="39.4"/>
<line class="st0" x1="639.8" y1="0.6" x2="601" y2="39.4"/>
<line class="st0" x1="659.2" y1="0.6" x2="620.4" y2="39.4"/>
<line class="st0" x1="678.6" y1="0.6" x2="639.8" y2="39.4"/>
<line class="st0" x1="698" y1="0.6" x2="659.2" y2="39.4"/>
<line class="st0" x1="717.3" y1="0.6" x2="678.6" y2="39.4"/>
<line class="st0" x1="736.7" y1="0.6" x2="698" y2="39.4"/>
<line class="st0" x1="756.1" y1="0.6" x2="717.3" y2="39.4"/>
<line class="st0" x1="775.5" y1="0.6" x2="736.7" y2="39.4"/>
<line class="st0" x1="794.9" y1="0.6" x2="756.1" y2="39.4"/>
<line class="st0" x1="814.3" y1="0.6" x2="775.5" y2="39.4"/>
<line class="st0" x1="833.7" y1="0.6" x2="794.9" y2="39.4"/>
<line class="st0" x1="853.1" y1="0.6" x2="814.3" y2="39.4"/>
<line class="st0" x1="872.4" y1="0.6" x2="833.7" y2="39.4"/>
<line class="st0" x1="891.8" y1="0.6" x2="853.1" y2="39.4"/>
<line class="st1" x1="197.3" y1="25.7" x2="678.6" y2="25.7"/>
<line class="st0" x1="271.4" y1="0.6" x2="232.7" y2="39.4"/>
<line class="st0" x1="290.8" y1="0.6" x2="252" y2="39.4"/>
<line class="st0" x1="310.2" y1="0.6" x2="271.4" y2="39.4"/>
<line class="st0" x1="329.6" y1="0.6" x2="290.8" y2="39.4"/>
<line class="st0" x1="349" y1="0.6" x2="310.2" y2="39.4"/>
<line class="st0" x1="368.4" y1="0.6" x2="329.6" y2="39.4"/>
<line class="st0" x1="387.8" y1="0.6" x2="349" y2="39.4"/>
<line class="st0" x1="407.1" y1="0.6" x2="368.4" y2="39.4"/>
<line class="st0" x1="426.5" y1="0.6" x2="387.8" y2="39.4"/>
<line class="st0" x1="445.9" y1="0.6" x2="407.1" y2="39.4"/>
<line class="st0" x1="465.3" y1="0.6" x2="426.5" y2="39.4"/>
<line class="st0" x1="484.7" y1="0.6" x2="445.9" y2="39.4"/>
<line class="st0" x1="504.1" y1="0.6" x2="465.3" y2="39.4"/>
<line class="st0" x1="523.5" y1="0.6" x2="484.7" y2="39.4"/>
<line class="st0" x1="542.9" y1="0.6" x2="504.1" y2="39.4"/>
<line class="st0" x1="562.2" y1="0.6" x2="523.5" y2="39.4"/>
<line class="st0" x1="581.6" y1="0.6" x2="542.9" y2="39.4"/>
<line class="st0" x1="601" y1="0.6" x2="562.2" y2="39.4"/>
<line class="st0" x1="620.4" y1="0.6" x2="581.6" y2="39.4"/>
<line class="st0" x1="639.8" y1="0.6" x2="601" y2="39.4"/>
<line class="st0" x1="659.2" y1="0.6" x2="620.4" y2="39.4"/>
<line class="st0" x1="678.6" y1="0.6" x2="639.8" y2="39.4"/>
<line class="st0" x1="698" y1="0.6" x2="659.2" y2="39.4"/>
<line class="st0" x1="717.3" y1="0.6" x2="678.6" y2="39.4"/>
<line class="st0" x1="736.7" y1="0.6" x2="698" y2="39.4"/>
<line class="st0" x1="756.1" y1="0.6" x2="717.3" y2="39.4"/>
<line class="st0" x1="775.5" y1="0.6" x2="736.7" y2="39.4"/>
<line class="st0" x1="794.9" y1="0.6" x2="756.1" y2="39.4"/>
<line class="st0" x1="814.3" y1="0.6" x2="775.5" y2="39.4"/>
<line class="st0" x1="833.7" y1="0.6" x2="794.9" y2="39.4"/>
<line class="st0" x1="853.1" y1="0.6" x2="814.3" y2="39.4"/>
<line class="st0" x1="872.4" y1="0.6" x2="833.7" y2="39.4"/>
<line class="st0" x1="891.8" y1="0.6" x2="853.1" y2="39.4"/>
<line class="st0" x1="911.2" y1="0.6" x2="872.4" y2="39.4"/>
<line class="st1" x1="216.7" y1="25.7" x2="698" y2="25.7"/>
<line class="st0" x1="290.8" y1="0.6" x2="252" y2="39.4"/>
<line class="st0" x1="310.2" y1="0.6" x2="271.4" y2="39.4"/>
<line class="st0" x1="329.6" y1="0.6" x2="290.8" y2="39.4"/>
<line class="st0" x1="349" y1="0.6" x2="310.2" y2="39.4"/>
<line class="st0" x1="368.4" y1="0.6" x2="329.6" y2="39.4"/>
<line class="st0" x1="387.8" y1="0.6" x2="349" y2="39.4"/>
<line class="st0" x1="407.1" y1="0.6" x2="368.4" y2="39.4"/>
<line class="st0" x1="426.5" y1="0.6" x2="387.8" y2="39.4"/>
<line class="st0" x1="445.9" y1="0.6" x2="407.1" y2="39.4"/>
<line class="st0" x1="465.3" y1="0.6" x2="426.5" y2="39.4"/>
<line class="st0" x1="484.7" y1="0.6" x2="445.9" y2="39.4"/>
<line class="st0" x1="504.1" y1="0.6" x2="465.3" y2="39.4"/>
<line class="st0" x1="523.5" y1="0.6" x2="484.7" y2="39.4"/>
<line class="st0" x1="542.9" y1="0.6" x2="504.1" y2="39.4"/>
<line class="st0" x1="562.2" y1="0.6" x2="523.5" y2="39.4"/>
<line class="st0" x1="581.6" y1="0.6" x2="542.9" y2="39.4"/>
<line class="st0" x1="601" y1="0.6" x2="562.2" y2="39.4"/>
<line class="st0" x1="620.4" y1="0.6" x2="581.6" y2="39.4"/>
<line class="st0" x1="639.8" y1="0.6" x2="601" y2="39.4"/>
<line class="st0" x1="659.2" y1="0.6" x2="620.4" y2="39.4"/>
<line class="st0" x1="678.6" y1="0.6" x2="639.8" y2="39.4"/>
<line class="st0" x1="698" y1="0.6" x2="659.2" y2="39.4"/>
<line class="st0" x1="717.3" y1="0.6" x2="678.6" y2="39.4"/>
<line class="st0" x1="736.7" y1="0.6" x2="698" y2="39.4"/>
<line class="st0" x1="756.1" y1="0.6" x2="717.3" y2="39.4"/>
<line class="st0" x1="775.5" y1="0.6" x2="736.7" y2="39.4"/>
<line class="st0" x1="794.9" y1="0.6" x2="756.1" y2="39.4"/>
<line class="st0" x1="814.3" y1="0.6" x2="775.5" y2="39.4"/>
<line class="st0" x1="833.7" y1="0.6" x2="794.9" y2="39.4"/>
<line class="st0" x1="853.1" y1="0.6" x2="814.3" y2="39.4"/>
<line class="st0" x1="872.4" y1="0.6" x2="833.7" y2="39.4"/>
<line class="st0" x1="891.8" y1="0.6" x2="853.1" y2="39.4"/>
<line class="st0" x1="911.2" y1="0.6" x2="872.4" y2="39.4"/>
<line class="st0" x1="930.6" y1="0.6" x2="891.8" y2="39.4"/>
<line class="st1" x1="236.1" y1="25.7" x2="717.3" y2="25.7"/>
<line class="st0" x1="310.2" y1="0.6" x2="271.4" y2="39.4"/>
<line class="st0" x1="329.6" y1="0.6" x2="290.8" y2="39.4"/>
<line class="st0" x1="349" y1="0.6" x2="310.2" y2="39.4"/>
<line class="st0" x1="368.4" y1="0.6" x2="329.6" y2="39.4"/>
<line class="st0" x1="387.8" y1="0.6" x2="349" y2="39.4"/>
<line class="st0" x1="407.1" y1="0.6" x2="368.4" y2="39.4"/>
<line class="st0" x1="426.5" y1="0.6" x2="387.8" y2="39.4"/>
<line class="st0" x1="445.9" y1="0.6" x2="407.1" y2="39.4"/>
<line class="st0" x1="465.3" y1="0.6" x2="426.5" y2="39.4"/>
<line class="st0" x1="484.7" y1="0.6" x2="445.9" y2="39.4"/>
<line class="st0" x1="504.1" y1="0.6" x2="465.3" y2="39.4"/>
<line class="st0" x1="523.5" y1="0.6" x2="484.7" y2="39.4"/>
<line class="st0" x1="542.9" y1="0.6" x2="504.1" y2="39.4"/>
<line class="st0" x1="562.2" y1="0.6" x2="523.5" y2="39.4"/>
<line class="st0" x1="581.6" y1="0.6" x2="542.9" y2="39.4"/>
<line class="st0" x1="601" y1="0.6" x2="562.2" y2="39.4"/>
<line class="st0" x1="620.4" y1="0.6" x2="581.6" y2="39.4"/>
<line class="st0" x1="639.8" y1="0.6" x2="601" y2="39.4"/>
<line class="st0" x1="659.2" y1="0.6" x2="620.4" y2="39.4"/>
<line class="st0" x1="38.8" y1="0.6" x2="0" y2="39.4"/>
<line class="st0" x1="58.2" y1="0.6" x2="19.4" y2="39.4"/>
<line class="st0" x1="77.6" y1="0.6" x2="38.8" y2="39.4"/>
<line class="st0" x1="96.9" y1="0.6" x2="58.2" y2="39.4"/>
<line class="st0" x1="116.3" y1="0.6" x2="77.6" y2="39.4"/>
<line class="st0" x1="135.7" y1="0.6" x2="96.9" y2="39.4"/>
<line class="st0" x1="155.1" y1="0.6" x2="116.3" y2="39.4"/>
<line class="st0" x1="174.5" y1="0.6" x2="135.7" y2="39.4"/>
<line class="st0" x1="193.9" y1="0.6" x2="155.1" y2="39.4"/>
<line class="st0" x1="213.3" y1="0.6" x2="174.5" y2="39.4"/>
<line class="st0" x1="232.7" y1="0.6" x2="193.9" y2="39.4"/>
<line class="st0" x1="252" y1="0.6" x2="213.3" y2="39.4"/>
<line class="st0" x1="271.4" y1="0.6" x2="232.7" y2="39.4"/>
<line class="st0" x1="290.8" y1="0.6" x2="252" y2="39.4"/>
<line class="st0" x1="310.2" y1="0.6" x2="271.4" y2="39.4"/>
<line class="st0" x1="329.6" y1="0.6" x2="290.8" y2="39.4"/>
<line class="st0" x1="349" y1="0.6" x2="310.2" y2="39.4"/>
<line class="st0" x1="368.4" y1="0.6" x2="329.6" y2="39.4"/>
<line class="st0" x1="387.8" y1="0.6" x2="349" y2="39.4"/>
<line class="st0" x1="407.1" y1="0.6" x2="368.4" y2="39.4"/>
<line class="st0" x1="426.5" y1="0.6" x2="387.8" y2="39.4"/>
<line class="st0" x1="445.9" y1="0.6" x2="407.1" y2="39.4"/>
<line class="st0" x1="465.3" y1="0.6" x2="426.5" y2="39.4"/>
<line class="st0" x1="484.7" y1="0.6" x2="445.9" y2="39.4"/>
<line class="st0" x1="504.1" y1="0.6" x2="465.3" y2="39.4"/>
<line class="st0" x1="523.5" y1="0.6" x2="484.7" y2="39.4"/>
<line class="st0" x1="542.9" y1="0.6" x2="504.1" y2="39.4"/>
<line class="st0" x1="562.2" y1="0.6" x2="523.5" y2="39.4"/>
<line class="st0" x1="581.6" y1="0.6" x2="542.9" y2="39.4"/>
<line class="st0" x1="601" y1="0.6" x2="562.2" y2="39.4"/>
<line class="st0" x1="620.4" y1="0.6" x2="581.6" y2="39.4"/>
<line class="st0" x1="639.8" y1="0.6" x2="601" y2="39.4"/>
<line class="st0" x1="659.2" y1="0.6" x2="620.4" y2="39.4"/>
<line class="st0" x1="678.6" y1="0.6" x2="639.8" y2="39.4"/>
<line class="st0" x1="38.8" y1="0.6" x2="0" y2="39.4"/>
<line class="st0" x1="58.2" y1="0.6" x2="19.4" y2="39.4"/>
<line class="st0" x1="77.6" y1="0.6" x2="38.8" y2="39.4"/>
<line class="st0" x1="96.9" y1="0.6" x2="58.2" y2="39.4"/>
<line class="st0" x1="116.3" y1="0.6" x2="77.6" y2="39.4"/>
<line class="st0" x1="135.7" y1="0.6" x2="96.9" y2="39.4"/>
<line class="st0" x1="155.1" y1="0.6" x2="116.3" y2="39.4"/>
<line class="st0" x1="174.5" y1="0.6" x2="135.7" y2="39.4"/>
<line class="st0" x1="193.9" y1="0.6" x2="155.1" y2="39.4"/>
<line class="st0" x1="213.3" y1="0.6" x2="174.5" y2="39.4"/>
<line class="st0" x1="232.7" y1="0.6" x2="193.9" y2="39.4"/>
<line class="st0" x1="252" y1="0.6" x2="213.3" y2="39.4"/>
<line class="st0" x1="271.4" y1="0.6" x2="232.7" y2="39.4"/>
<line class="st0" x1="290.8" y1="0.6" x2="252" y2="39.4"/>
<line class="st0" x1="310.2" y1="0.6" x2="271.4" y2="39.4"/>
<line class="st0" x1="329.6" y1="0.6" x2="290.8" y2="39.4"/>
<line class="st0" x1="349" y1="0.6" x2="310.2" y2="39.4"/>
<line class="st0" x1="368.4" y1="0.6" x2="329.6" y2="39.4"/>
<line class="st0" x1="387.8" y1="0.6" x2="349" y2="39.4"/>
<line class="st0" x1="407.1" y1="0.6" x2="368.4" y2="39.4"/>
<line class="st0" x1="426.5" y1="0.6" x2="387.8" y2="39.4"/>
<line class="st0" x1="445.9" y1="0.6" x2="407.1" y2="39.4"/>
<line class="st0" x1="465.3" y1="0.6" x2="426.5" y2="39.4"/>
<line class="st0" x1="484.7" y1="0.6" x2="445.9" y2="39.4"/>
<line class="st0" x1="504.1" y1="0.6" x2="465.3" y2="39.4"/>
<line class="st0" x1="523.5" y1="0.6" x2="484.7" y2="39.4"/>
<line class="st0" x1="542.9" y1="0.6" x2="504.1" y2="39.4"/>
<line class="st0" x1="562.2" y1="0.6" x2="523.5" y2="39.4"/>
<line class="st0" x1="581.6" y1="0.6" x2="542.9" y2="39.4"/>
<line class="st0" x1="601" y1="0.6" x2="562.2" y2="39.4"/>
<line class="st0" x1="620.4" y1="0.6" x2="581.6" y2="39.4"/>
<line class="st0" x1="639.8" y1="0.6" x2="601" y2="39.4"/>
<line class="st0" x1="659.2" y1="0.6" x2="620.4" y2="39.4"/>
<line class="st0" x1="678.6" y1="0.6" x2="639.8" y2="39.4"/>
<line class="st0" x1="38.8" y1="0.6" x2="0" y2="39.4"/>
<line class="st0" x1="58.2" y1="0.6" x2="19.4" y2="39.4"/>
<line class="st0" x1="77.6" y1="0.6" x2="38.8" y2="39.4"/>
<line class="st0" x1="96.9" y1="0.6" x2="58.2" y2="39.4"/>
<line class="st0" x1="116.3" y1="0.6" x2="77.6" y2="39.4"/>
<line class="st0" x1="135.7" y1="0.6" x2="96.9" y2="39.4"/>
<line class="st0" x1="155.1" y1="0.6" x2="116.3" y2="39.4"/>
<line class="st0" x1="174.5" y1="0.6" x2="135.7" y2="39.4"/>
<line class="st0" x1="193.9" y1="0.6" x2="155.1" y2="39.4"/>
<line class="st0" x1="213.3" y1="0.6" x2="174.5" y2="39.4"/>
<line class="st0" x1="232.7" y1="0.6" x2="193.9" y2="39.4"/>
<line class="st0" x1="252" y1="0.6" x2="213.3" y2="39.4"/>
<line class="st0" x1="271.4" y1="0.6" x2="232.7" y2="39.4"/>
<line class="st0" x1="290.8" y1="0.6" x2="252" y2="39.4"/>
<line class="st0" x1="310.2" y1="0.6" x2="271.4" y2="39.4"/>
<line class="st0" x1="329.6" y1="0.6" x2="290.8" y2="39.4"/>
<line class="st0" x1="349" y1="0.6" x2="310.2" y2="39.4"/>
<line class="st0" x1="368.4" y1="0.6" x2="329.6" y2="39.4"/>
<line class="st0" x1="387.8" y1="0.6" x2="349" y2="39.4"/>
<line class="st0" x1="407.1" y1="0.6" x2="368.4" y2="39.4"/>
<line class="st0" x1="426.5" y1="0.6" x2="387.8" y2="39.4"/>
<line class="st0" x1="445.9" y1="0.6" x2="407.1" y2="39.4"/>
<line class="st0" x1="465.3" y1="0.6" x2="426.5" y2="39.4"/>
<line class="st0" x1="484.7" y1="0.6" x2="445.9" y2="39.4"/>
<line class="st0" x1="504.1" y1="0.6" x2="465.3" y2="39.4"/>
<line class="st0" x1="523.5" y1="0.6" x2="484.7" y2="39.4"/>
<line class="st0" x1="542.9" y1="0.6" x2="504.1" y2="39.4"/>
<line class="st0" x1="562.2" y1="0.6" x2="523.5" y2="39.4"/>
<line class="st0" x1="581.6" y1="0.6" x2="542.9" y2="39.4"/>
<line class="st0" x1="601" y1="0.6" x2="562.2" y2="39.4"/>
<line class="st0" x1="620.4" y1="0.6" x2="581.6" y2="39.4"/>
<line class="st0" x1="639.8" y1="0.6" x2="601" y2="39.4"/>
<line class="st0" x1="659.2" y1="0.6" x2="620.4" y2="39.4"/>
<line class="st0" x1="678.6" y1="0.6" x2="639.8" y2="39.4"/>
<line class="st0" x1="38.8" y1="0.6" x2="0" y2="39.4"/>
<line class="st0" x1="58.2" y1="0.6" x2="19.4" y2="39.4"/>
<line class="st0" x1="77.6" y1="0.6" x2="38.8" y2="39.4"/>
<line class="st0" x1="96.9" y1="0.6" x2="58.2" y2="39.4"/>
<line class="st0" x1="116.3" y1="0.6" x2="77.6" y2="39.4"/>
<line class="st0" x1="135.7" y1="0.6" x2="96.9" y2="39.4"/>
<line class="st0" x1="155.1" y1="0.6" x2="116.3" y2="39.4"/>
<line class="st0" x1="174.5" y1="0.6" x2="135.7" y2="39.4"/>
<line class="st0" x1="193.9" y1="0.6" x2="155.1" y2="39.4"/>
<line class="st0" x1="213.3" y1="0.6" x2="174.5" y2="39.4"/>
<line class="st0" x1="232.7" y1="0.6" x2="193.9" y2="39.4"/>
<line class="st0" x1="252" y1="0.6" x2="213.3" y2="39.4"/>
<line class="st0" x1="271.4" y1="0.6" x2="232.7" y2="39.4"/>
<line class="st0" x1="290.8" y1="0.6" x2="252" y2="39.4"/>
<line class="st0" x1="310.2" y1="0.6" x2="271.4" y2="39.4"/>
<line class="st0" x1="329.6" y1="0.6" x2="290.8" y2="39.4"/>
<line class="st0" x1="349" y1="0.6" x2="310.2" y2="39.4"/>
<line class="st0" x1="368.4" y1="0.6" x2="329.6" y2="39.4"/>
<line class="st0" x1="387.8" y1="0.6" x2="349" y2="39.4"/>
<line class="st0" x1="407.1" y1="0.6" x2="368.4" y2="39.4"/>
<line class="st0" x1="426.5" y1="0.6" x2="387.8" y2="39.4"/>
<line class="st0" x1="445.9" y1="0.6" x2="407.1" y2="39.4"/>
<line class="st0" x1="465.3" y1="0.6" x2="426.5" y2="39.4"/>
<line class="st0" x1="484.7" y1="0.6" x2="445.9" y2="39.4"/>
<line class="st0" x1="504.1" y1="0.6" x2="465.3" y2="39.4"/>
<line class="st0" x1="523.5" y1="0.6" x2="484.7" y2="39.4"/>
<line class="st0" x1="542.9" y1="0.6" x2="504.1" y2="39.4"/>
<line class="st0" x1="562.2" y1="0.6" x2="523.5" y2="39.4"/>
<line class="st0" x1="581.6" y1="0.6" x2="542.9" y2="39.4"/>
<line class="st0" x1="601" y1="0.6" x2="562.2" y2="39.4"/>
<line class="st0" x1="620.4" y1="0.6" x2="581.6" y2="39.4"/>
<line class="st0" x1="639.8" y1="0.6" x2="601" y2="39.4"/>
<line class="st0" x1="659.2" y1="0.6" x2="620.4" y2="39.4"/>
<line class="st0" x1="678.6" y1="0.6" x2="639.8" y2="39.4"/>
<line class="st0" x1="38.8" y1="0.6" x2="0" y2="39.4"/>
<line class="st0" x1="58.2" y1="0.6" x2="19.4" y2="39.4"/>
<line class="st0" x1="77.6" y1="0.6" x2="38.8" y2="39.4"/>
<line class="st0" x1="96.9" y1="0.6" x2="58.2" y2="39.4"/>
<line class="st0" x1="116.3" y1="0.6" x2="77.6" y2="39.4"/>
<line class="st0" x1="135.7" y1="0.6" x2="96.9" y2="39.4"/>
<line class="st0" x1="155.1" y1="0.6" x2="116.3" y2="39.4"/>
<line class="st0" x1="174.5" y1="0.6" x2="135.7" y2="39.4"/>
<line class="st0" x1="193.9" y1="0.6" x2="155.1" y2="39.4"/>
<line class="st0" x1="213.3" y1="0.6" x2="174.5" y2="39.4"/>
<line class="st0" x1="232.7" y1="0.6" x2="193.9" y2="39.4"/>
<line class="st0" x1="252" y1="0.6" x2="213.3" y2="39.4"/>
<line class="st0" x1="271.4" y1="0.6" x2="232.7" y2="39.4"/>
<line class="st0" x1="290.8" y1="0.6" x2="252" y2="39.4"/>
<line class="st0" x1="310.2" y1="0.6" x2="271.4" y2="39.4"/>
<line class="st0" x1="329.6" y1="0.6" x2="290.8" y2="39.4"/>
<line class="st0" x1="349" y1="0.6" x2="310.2" y2="39.4"/>
<line class="st0" x1="368.4" y1="0.6" x2="329.6" y2="39.4"/>
<line class="st0" x1="387.8" y1="0.6" x2="349" y2="39.4"/>
<line class="st0" x1="407.1" y1="0.6" x2="368.4" y2="39.4"/>
<line class="st0" x1="426.5" y1="0.6" x2="387.8" y2="39.4"/>
<line class="st0" x1="445.9" y1="0.6" x2="407.1" y2="39.4"/>
<line class="st0" x1="465.3" y1="0.6" x2="426.5" y2="39.4"/>
<line class="st0" x1="484.7" y1="0.6" x2="445.9" y2="39.4"/>
<line class="st0" x1="504.1" y1="0.6" x2="465.3" y2="39.4"/>
<line class="st0" x1="523.5" y1="0.6" x2="484.7" y2="39.4"/>
<line class="st0" x1="542.9" y1="0.6" x2="504.1" y2="39.4"/>
<line class="st0" x1="562.2" y1="0.6" x2="523.5" y2="39.4"/>
<line class="st0" x1="581.6" y1="0.6" x2="542.9" y2="39.4"/>
<line class="st0" x1="601" y1="0.6" x2="562.2" y2="39.4"/>
<line class="st0" x1="620.4" y1="0.6" x2="581.6" y2="39.4"/>
<line class="st0" x1="639.8" y1="0.6" x2="601" y2="39.4"/>
<line class="st0" x1="659.2" y1="0.6" x2="620.4" y2="39.4"/>
<line class="st0" x1="678.6" y1="0.6" x2="639.8" y2="39.4"/>
<line class="st0" x1="38.8" y1="0.6" x2="0" y2="39.4"/>
<line class="st0" x1="58.2" y1="0.6" x2="19.4" y2="39.4"/>
<line class="st0" x1="77.6" y1="0.6" x2="38.8" y2="39.4"/>
<line class="st0" x1="96.9" y1="0.6" x2="58.2" y2="39.4"/>
<line class="st0" x1="116.3" y1="0.6" x2="77.6" y2="39.4"/>
<line class="st0" x1="135.7" y1="0.6" x2="96.9" y2="39.4"/>
<line class="st0" x1="155.1" y1="0.6" x2="116.3" y2="39.4"/>
<line class="st0" x1="174.5" y1="0.6" x2="135.7" y2="39.4"/>
<line class="st0" x1="193.9" y1="0.6" x2="155.1" y2="39.4"/>
<line class="st0" x1="213.3" y1="0.6" x2="174.5" y2="39.4"/>
<line class="st0" x1="232.7" y1="0.6" x2="193.9" y2="39.4"/>
<line class="st0" x1="252" y1="0.6" x2="213.3" y2="39.4"/>
<line class="st0" x1="271.4" y1="0.6" x2="232.7" y2="39.4"/>
<line class="st0" x1="290.8" y1="0.6" x2="252" y2="39.4"/>
<line class="st0" x1="310.2" y1="0.6" x2="271.4" y2="39.4"/>
<line class="st0" x1="329.6" y1="0.6" x2="290.8" y2="39.4"/>
<line class="st0" x1="349" y1="0.6" x2="310.2" y2="39.4"/>
<line class="st0" x1="368.4" y1="0.6" x2="329.6" y2="39.4"/>
<line class="st0" x1="387.8" y1="0.6" x2="349" y2="39.4"/>
<line class="st0" x1="407.1" y1="0.6" x2="368.4" y2="39.4"/>
<line class="st0" x1="426.5" y1="0.6" x2="387.8" y2="39.4"/>
<line class="st0" x1="445.9" y1="0.6" x2="407.1" y2="39.4"/>
<line class="st0" x1="465.3" y1="0.6" x2="426.5" y2="39.4"/>
<line class="st0" x1="484.7" y1="0.6" x2="445.9" y2="39.4"/>
<line class="st0" x1="504.1" y1="0.6" x2="465.3" y2="39.4"/>
<line class="st0" x1="523.5" y1="0.6" x2="484.7" y2="39.4"/>
<line class="st0" x1="542.9" y1="0.6" x2="504.1" y2="39.4"/>
<line class="st0" x1="562.2" y1="0.6" x2="523.5" y2="39.4"/>
<line class="st0" x1="581.6" y1="0.6" x2="542.9" y2="39.4"/>
<line class="st0" x1="601" y1="0.6" x2="562.2" y2="39.4"/>
<line class="st0" x1="620.4" y1="0.6" x2="581.6" y2="39.4"/>
<line class="st0" x1="639.8" y1="0.6" x2="601" y2="39.4"/>
<line class="st0" x1="659.2" y1="0.6" x2="620.4" y2="39.4"/>
<line class="st0" x1="678.6" y1="0.6" x2="639.8" y2="39.4"/>
<line class="st0" x1="678.6" y1="0.6" x2="639.8" y2="39.4"/>
<line class="st0" x1="698" y1="0.6" x2="659.2" y2="39.4"/>
<line class="st0" x1="717.3" y1="0.6" x2="678.6" y2="39.4"/>
<line class="st0" x1="736.7" y1="0.6" x2="698" y2="39.4"/>
<line class="st0" x1="756.1" y1="0.6" x2="717.3" y2="39.4"/>
<line class="st0" x1="775.5" y1="0.6" x2="736.7" y2="39.4"/>
<line class="st0" x1="794.9" y1="0.6" x2="756.1" y2="39.4"/>
<line class="st0" x1="814.3" y1="0.6" x2="775.5" y2="39.4"/>
<line class="st0" x1="833.7" y1="0.6" x2="794.9" y2="39.4"/>
<line class="st0" x1="853.1" y1="0.6" x2="814.3" y2="39.4"/>
<line class="st0" x1="872.4" y1="0.6" x2="833.7" y2="39.4"/>
<line class="st0" x1="891.8" y1="0.6" x2="853.1" y2="39.4"/>
<line class="st0" x1="911.2" y1="0.6" x2="872.4" y2="39.4"/>
<line class="st0" x1="930.6" y1="0.6" x2="891.8" y2="39.4"/>
<line class="st0" x1="950" y1="0.6" x2="911.2" y2="39.4"/>
<line class="st2" x1="0.5" y1="20.5" x2="950.5" y2="20.5"/>
</svg>
