<?xml version="1.0" encoding="utf-8"?>
<!-- Generator: Adobe Illustrator 21.1.0, SVG Export Plug-In . SVG Version: 6.00 Build 0)  -->
<svg version="1.1" id="Layer_1" xmlns="http://www.w3.org/2000/svg" xmlns:xlink="http://www.w3.org/1999/xlink" x="0px" y="0px"
	 viewBox="0 0 475 20" style="enable-background:new 0 0 475 20;" xml:space="preserve">
<style type="text/css">
	.st0{fill:none;stroke:#D8D8D8;stroke-miterlimit:10;}
	.st1{fill:none;}
	.st2{fill:none;stroke:#000000;stroke-miterlimit:10;}
</style>
<line class="st0" x1="19.4" y1="0.3" x2="0" y2="19.7"/>
<line class="st0" x1="29.1" y1="0.3" x2="9.7" y2="19.7"/>
<line class="st0" x1="38.8" y1="0.3" x2="19.4" y2="19.7"/>
<line class="st0" x1="48.5" y1="0.3" x2="29.1" y2="19.7"/>
<line class="st0" x1="58.2" y1="0.3" x2="38.8" y2="19.7"/>
<line class="st0" x1="67.9" y1="0.3" x2="48.5" y2="19.7"/>
<line class="st0" x1="77.6" y1="0.3" x2="58.2" y2="19.7"/>
<line class="st0" x1="87.3" y1="0.3" x2="67.9" y2="19.7"/>
<line class="st0" x1="97" y1="0.3" x2="77.6" y2="19.7"/>
<line class="st0" x1="106.7" y1="0.3" x2="87.3" y2="19.7"/>
<line class="st0" x1="116.4" y1="0.3" x2="97" y2="19.7"/>
<line class="st0" x1="126.1" y1="0.3" x2="106.7" y2="19.7"/>
<line class="st0" x1="135.8" y1="0.3" x2="116.4" y2="19.7"/>
<line class="st0" x1="145.5" y1="0.3" x2="126.1" y2="19.7"/>
<line class="st0" x1="155.2" y1="0.3" x2="135.8" y2="19.7"/>
<line class="st0" x1="164.9" y1="0.3" x2="145.5" y2="19.7"/>
<line class="st0" x1="174.6" y1="0.3" x2="155.2" y2="19.7"/>
<line class="st0" x1="184.3" y1="0.3" x2="164.9" y2="19.7"/>
<line class="st0" x1="194" y1="0.3" x2="174.6" y2="19.7"/>
<line class="st0" x1="203.7" y1="0.3" x2="184.3" y2="19.7"/>
<line class="st0" x1="213.4" y1="0.3" x2="194" y2="19.7"/>
<line class="st0" x1="223.1" y1="0.3" x2="203.7" y2="19.7"/>
<line class="st0" x1="232.8" y1="0.3" x2="213.4" y2="19.7"/>
<line class="st0" x1="242.5" y1="0.3" x2="223.1" y2="19.7"/>
<line class="st0" x1="252.2" y1="0.3" x2="232.8" y2="19.7"/>
<line class="st0" x1="261.9" y1="0.3" x2="242.5" y2="19.7"/>
<line class="st0" x1="271.6" y1="0.3" x2="252.2" y2="19.7"/>
<line class="st0" x1="281.2" y1="0.3" x2="261.9" y2="19.7"/>
<line class="st0" x1="291" y1="0.3" x2="271.6" y2="19.7"/>
<line class="st0" x1="300.7" y1="0.3" x2="281.2" y2="19.7"/>
<line class="st0" x1="310.4" y1="0.3" x2="291" y2="19.7"/>
<line class="st0" x1="320.1" y1="0.3" x2="300.7" y2="19.7"/>
<line class="st0" x1="329.8" y1="0.3" x2="310.4" y2="19.7"/>
<line class="st0" x1="339.5" y1="0.3" x2="320.1" y2="19.7"/>
<line class="st0" x1="29.1" y1="0.3" x2="9.7" y2="19.7"/>
<line class="st0" x1="38.8" y1="0.3" x2="19.4" y2="19.7"/>
<line class="st0" x1="48.5" y1="0.3" x2="29.1" y2="19.7"/>
<line class="st0" x1="58.2" y1="0.3" x2="38.8" y2="19.7"/>
<line class="st0" x1="67.9" y1="0.3" x2="48.5" y2="19.7"/>
<line class="st0" x1="77.6" y1="0.3" x2="58.2" y2="19.7"/>
<line class="st0" x1="87.3" y1="0.3" x2="67.9" y2="19.7"/>
<line class="st0" x1="97" y1="0.3" x2="77.6" y2="19.7"/>
<line class="st0" x1="106.7" y1="0.3" x2="87.3" y2="19.7"/>
<line class="st0" x1="116.4" y1="0.3" x2="97" y2="19.7"/>
<line class="st0" x1="126.1" y1="0.3" x2="106.7" y2="19.7"/>
<line class="st0" x1="135.8" y1="0.3" x2="116.4" y2="19.7"/>
<line class="st0" x1="145.5" y1="0.3" x2="126.1" y2="19.7"/>
<line class="st0" x1="155.2" y1="0.3" x2="135.8" y2="19.7"/>
<line class="st0" x1="164.9" y1="0.3" x2="145.5" y2="19.7"/>
<line class="st0" x1="174.6" y1="0.3" x2="155.2" y2="19.7"/>
<line class="st0" x1="184.3" y1="0.3" x2="164.9" y2="19.7"/>
<line class="st0" x1="194" y1="0.3" x2="174.6" y2="19.7"/>
<line class="st0" x1="203.7" y1="0.3" x2="184.3" y2="19.7"/>
<line class="st0" x1="213.4" y1="0.3" x2="194" y2="19.7"/>
<line class="st0" x1="223.1" y1="0.3" x2="203.7" y2="19.7"/>
<line class="st0" x1="232.8" y1="0.3" x2="213.4" y2="19.7"/>
<line class="st0" x1="242.5" y1="0.3" x2="223.1" y2="19.7"/>
<line class="st0" x1="252.2" y1="0.3" x2="232.8" y2="19.7"/>
<line class="st0" x1="261.9" y1="0.3" x2="242.5" y2="19.7"/>
<line class="st0" x1="271.6" y1="0.3" x2="252.2" y2="19.7"/>
<line class="st0" x1="281.2" y1="0.3" x2="261.9" y2="19.7"/>
<line class="st0" x1="291" y1="0.3" x2="271.6" y2="19.7"/>
<line class="st0" x1="300.7" y1="0.3" x2="281.2" y2="19.7"/>
<line class="st0" x1="310.4" y1="0.3" x2="291" y2="19.7"/>
<line class="st0" x1="320.1" y1="0.3" x2="300.7" y2="19.7"/>
<line class="st0" x1="329.8" y1="0.3" x2="310.4" y2="19.7"/>
<line class="st0" x1="339.5" y1="0.3" x2="320.1" y2="19.7"/>
<line class="st0" x1="349.2" y1="0.3" x2="329.8" y2="19.7"/>
<line class="st0" x1="38.8" y1="0.3" x2="19.4" y2="19.7"/>
<line class="st0" x1="48.5" y1="0.3" x2="29.1" y2="19.7"/>
<line class="st0" x1="58.2" y1="0.3" x2="38.8" y2="19.7"/>
<line class="st0" x1="67.9" y1="0.3" x2="48.5" y2="19.7"/>
<line class="st0" x1="77.6" y1="0.3" x2="58.2" y2="19.7"/>
<line class="st0" x1="87.3" y1="0.3" x2="67.9" y2="19.7"/>
<line class="st0" x1="97" y1="0.3" x2="77.6" y2="19.7"/>
<line class="st0" x1="106.7" y1="0.3" x2="87.3" y2="19.7"/>
<line class="st0" x1="116.4" y1="0.3" x2="97" y2="19.7"/>
<line class="st0" x1="126.1" y1="0.3" x2="106.7" y2="19.7"/>
<line class="st0" x1="135.8" y1="0.3" x2="116.4" y2="19.7"/>
<line class="st0" x1="145.5" y1="0.3" x2="126.1" y2="19.7"/>
<line class="st0" x1="155.2" y1="0.3" x2="135.8" y2="19.7"/>
<line class="st0" x1="164.9" y1="0.3" x2="145.5" y2="19.7"/>
<line class="st0" x1="174.6" y1="0.3" x2="155.2" y2="19.7"/>
<line class="st0" x1="184.3" y1="0.3" x2="164.9" y2="19.7"/>
<line class="st0" x1="194" y1="0.3" x2="174.6" y2="19.7"/>
<line class="st0" x1="203.7" y1="0.3" x2="184.3" y2="19.7"/>
<line class="st0" x1="213.4" y1="0.3" x2="194" y2="19.7"/>
<line class="st0" x1="223.1" y1="0.3" x2="203.7" y2="19.7"/>
<line class="st0" x1="232.8" y1="0.3" x2="213.4" y2="19.7"/>
<line class="st0" x1="242.5" y1="0.3" x2="223.1" y2="19.7"/>
<line class="st0" x1="252.2" y1="0.3" x2="232.8" y2="19.7"/>
<line class="st0" x1="261.9" y1="0.3" x2="242.5" y2="19.7"/>
<line class="st0" x1="271.6" y1="0.3" x2="252.2" y2="19.7"/>
<line class="st0" x1="281.2" y1="0.3" x2="261.9" y2="19.7"/>
<line class="st0" x1="291" y1="0.3" x2="271.6" y2="19.7"/>
<line class="st0" x1="300.7" y1="0.3" x2="281.2" y2="19.7"/>
<line class="st0" x1="310.4" y1="0.3" x2="291" y2="19.7"/>
<line class="st0" x1="320.1" y1="0.3" x2="300.7" y2="19.7"/>
<line class="st0" x1="329.8" y1="0.3" x2="310.4" y2="19.7"/>
<line class="st0" x1="339.5" y1="0.3" x2="320.1" y2="19.7"/>
<line class="st0" x1="349.2" y1="0.3" x2="329.8" y2="19.7"/>
<line class="st0" x1="358.8" y1="0.3" x2="339.5" y2="19.7"/>
<line class="st1" x1="11.4" y1="12.9" x2="252.2" y2="12.9"/>
<line class="st0" x1="48.5" y1="0.3" x2="29.1" y2="19.7"/>
<line class="st0" x1="58.2" y1="0.3" x2="38.8" y2="19.7"/>
<line class="st0" x1="67.9" y1="0.3" x2="48.5" y2="19.7"/>
<line class="st0" x1="77.6" y1="0.3" x2="58.2" y2="19.7"/>
<line class="st0" x1="87.3" y1="0.3" x2="67.9" y2="19.7"/>
<line class="st0" x1="97" y1="0.3" x2="77.6" y2="19.7"/>
<line class="st0" x1="106.7" y1="0.3" x2="87.3" y2="19.7"/>
<line class="st0" x1="116.4" y1="0.3" x2="97" y2="19.7"/>
<line class="st0" x1="126.1" y1="0.3" x2="106.7" y2="19.7"/>
<line class="st0" x1="135.8" y1="0.3" x2="116.4" y2="19.7"/>
<line class="st0" x1="145.5" y1="0.3" x2="126.1" y2="19.7"/>
<line class="st0" x1="155.2" y1="0.3" x2="135.8" y2="19.7"/>
<line class="st0" x1="164.9" y1="0.3" x2="145.5" y2="19.7"/>
<line class="st0" x1="174.6" y1="0.3" x2="155.2" y2="19.7"/>
<line class="st0" x1="184.3" y1="0.3" x2="164.9" y2="19.7"/>
<line class="st0" x1="194" y1="0.3" x2="174.6" y2="19.7"/>
<line class="st0" x1="203.7" y1="0.3" x2="184.3" y2="19.7"/>
<line class="st0" x1="213.4" y1="0.3" x2="194" y2="19.7"/>
<line class="st0" x1="223.1" y1="0.3" x2="203.7" y2="19.7"/>
<line class="st0" x1="232.8" y1="0.3" x2="213.4" y2="19.7"/>
<line class="st0" x1="242.5" y1="0.3" x2="223.1" y2="19.7"/>
<line class="st0" x1="252.2" y1="0.3" x2="232.8" y2="19.7"/>
<line class="st0" x1="261.9" y1="0.3" x2="242.5" y2="19.7"/>
<line class="st0" x1="271.6" y1="0.3" x2="252.2" y2="19.7"/>
<line class="st0" x1="281.2" y1="0.3" x2="261.9" y2="19.7"/>
<line class="st0" x1="291" y1="0.3" x2="271.6" y2="19.7"/>
<line class="st0" x1="300.7" y1="0.3" x2="281.2" y2="19.7"/>
<line class="st0" x1="310.4" y1="0.3" x2="291" y2="19.7"/>
<line class="st0" x1="320.1" y1="0.3" x2="300.7" y2="19.7"/>
<line class="st0" x1="329.8" y1="0.3" x2="310.4" y2="19.7"/>
<line class="st0" x1="339.5" y1="0.3" x2="320.1" y2="19.7"/>
<line class="st0" x1="349.2" y1="0.3" x2="329.8" y2="19.7"/>
<line class="st0" x1="358.8" y1="0.3" x2="339.5" y2="19.7"/>
<line class="st0" x1="368.5" y1="0.3" x2="349.2" y2="19.7"/>
<line class="st1" x1="21.1" y1="12.9" x2="261.9" y2="12.9"/>
<line class="st0" x1="58.2" y1="0.3" x2="38.8" y2="19.7"/>
<line class="st0" x1="67.9" y1="0.3" x2="48.5" y2="19.7"/>
<line class="st0" x1="77.6" y1="0.3" x2="58.2" y2="19.7"/>
<line class="st0" x1="87.3" y1="0.3" x2="67.9" y2="19.7"/>
<line class="st0" x1="97" y1="0.3" x2="77.6" y2="19.7"/>
<line class="st0" x1="106.7" y1="0.3" x2="87.3" y2="19.7"/>
<line class="st0" x1="116.4" y1="0.3" x2="97" y2="19.7"/>
<line class="st0" x1="126.1" y1="0.3" x2="106.7" y2="19.7"/>
<line class="st0" x1="135.8" y1="0.3" x2="116.4" y2="19.7"/>
<line class="st0" x1="145.5" y1="0.3" x2="126.1" y2="19.7"/>
<line class="st0" x1="155.2" y1="0.3" x2="135.8" y2="19.7"/>
<line class="st0" x1="164.9" y1="0.3" x2="145.5" y2="19.7"/>
<line class="st0" x1="174.6" y1="0.3" x2="155.2" y2="19.7"/>
<line class="st0" x1="184.3" y1="0.3" x2="164.9" y2="19.7"/>
<line class="st0" x1="194" y1="0.3" x2="174.6" y2="19.7"/>
<line class="st0" x1="203.7" y1="0.3" x2="184.3" y2="19.7"/>
<line class="st0" x1="213.4" y1="0.3" x2="194" y2="19.7"/>
<line class="st0" x1="223.1" y1="0.3" x2="203.7" y2="19.7"/>
<line class="st0" x1="232.8" y1="0.3" x2="213.4" y2="19.7"/>
<line class="st0" x1="242.5" y1="0.3" x2="223.1" y2="19.7"/>
<line class="st0" x1="252.2" y1="0.3" x2="232.8" y2="19.7"/>
<line class="st0" x1="261.9" y1="0.3" x2="242.5" y2="19.7"/>
<line class="st0" x1="271.6" y1="0.3" x2="252.2" y2="19.7"/>
<line class="st0" x1="281.2" y1="0.3" x2="261.9" y2="19.7"/>
<line class="st0" x1="291" y1="0.3" x2="271.6" y2="19.7"/>
<line class="st0" x1="300.7" y1="0.3" x2="281.2" y2="19.7"/>
<line class="st0" x1="310.4" y1="0.3" x2="291" y2="19.7"/>
<line class="st0" x1="320.1" y1="0.3" x2="300.7" y2="19.7"/>
<line class="st0" x1="329.8" y1="0.3" x2="310.4" y2="19.7"/>
<line class="st0" x1="339.5" y1="0.3" x2="320.1" y2="19.7"/>
<line class="st0" x1="349.2" y1="0.3" x2="329.8" y2="19.7"/>
<line class="st0" x1="358.8" y1="0.3" x2="339.5" y2="19.7"/>
<line class="st0" x1="368.5" y1="0.3" x2="349.2" y2="19.7"/>
<line class="st0" x1="378.2" y1="0.3" x2="358.8" y2="19.7"/>
<line class="st1" x1="30.8" y1="12.9" x2="271.6" y2="12.9"/>
<line class="st0" x1="67.9" y1="0.3" x2="48.5" y2="19.7"/>
<line class="st0" x1="77.6" y1="0.3" x2="58.2" y2="19.7"/>
<line class="st0" x1="87.3" y1="0.3" x2="67.9" y2="19.7"/>
<line class="st0" x1="97" y1="0.3" x2="77.6" y2="19.7"/>
<line class="st0" x1="106.7" y1="0.3" x2="87.3" y2="19.7"/>
<line class="st0" x1="116.4" y1="0.3" x2="97" y2="19.7"/>
<line class="st0" x1="126.1" y1="0.3" x2="106.7" y2="19.7"/>
<line class="st0" x1="135.8" y1="0.3" x2="116.4" y2="19.7"/>
<line class="st0" x1="145.5" y1="0.3" x2="126.1" y2="19.7"/>
<line class="st0" x1="155.2" y1="0.3" x2="135.8" y2="19.7"/>
<line class="st0" x1="164.9" y1="0.3" x2="145.5" y2="19.7"/>
<line class="st0" x1="174.6" y1="0.3" x2="155.2" y2="19.7"/>
<line class="st0" x1="184.3" y1="0.3" x2="164.9" y2="19.7"/>
<line class="st0" x1="194" y1="0.3" x2="174.6" y2="19.7"/>
<line class="st0" x1="203.7" y1="0.3" x2="184.3" y2="19.7"/>
<line class="st0" x1="213.4" y1="0.3" x2="194" y2="19.7"/>
<line class="st0" x1="223.1" y1="0.3" x2="203.7" y2="19.7"/>
<line class="st0" x1="232.8" y1="0.3" x2="213.4" y2="19.7"/>
<line class="st0" x1="242.5" y1="0.3" x2="223.1" y2="19.7"/>
<line class="st0" x1="252.2" y1="0.3" x2="232.8" y2="19.7"/>
<line class="st0" x1="261.9" y1="0.3" x2="242.5" y2="19.7"/>
<line class="st0" x1="271.6" y1="0.3" x2="252.2" y2="19.7"/>
<line class="st0" x1="281.2" y1="0.3" x2="261.9" y2="19.7"/>
<line class="st0" x1="291" y1="0.3" x2="271.6" y2="19.7"/>
<line class="st0" x1="300.7" y1="0.3" x2="281.2" y2="19.7"/>
<line class="st0" x1="310.4" y1="0.3" x2="291" y2="19.7"/>
<line class="st0" x1="320.1" y1="0.3" x2="300.7" y2="19.7"/>
<line class="st0" x1="329.8" y1="0.3" x2="310.4" y2="19.7"/>
<line class="st0" x1="339.5" y1="0.3" x2="320.1" y2="19.7"/>
<line class="st0" x1="349.2" y1="0.3" x2="329.8" y2="19.7"/>
<line class="st0" x1="358.8" y1="0.3" x2="339.5" y2="19.7"/>
<line class="st0" x1="368.5" y1="0.3" x2="349.2" y2="19.7"/>
<line class="st0" x1="378.2" y1="0.3" x2="358.8" y2="19.7"/>
<line class="st0" x1="388" y1="0.3" x2="368.5" y2="19.7"/>
<line class="st1" x1="40.5" y1="12.9" x2="281.2" y2="12.9"/>
<line class="st0" x1="77.6" y1="0.3" x2="58.2" y2="19.7"/>
<line class="st0" x1="87.3" y1="0.3" x2="67.9" y2="19.7"/>
<line class="st0" x1="97" y1="0.3" x2="77.6" y2="19.7"/>
<line class="st0" x1="106.7" y1="0.3" x2="87.3" y2="19.7"/>
<line class="st0" x1="116.4" y1="0.3" x2="97" y2="19.7"/>
<line class="st0" x1="126.1" y1="0.3" x2="106.7" y2="19.7"/>
<line class="st0" x1="135.8" y1="0.3" x2="116.4" y2="19.7"/>
<line class="st0" x1="145.5" y1="0.3" x2="126.1" y2="19.7"/>
<line class="st0" x1="155.2" y1="0.3" x2="135.8" y2="19.7"/>
<line class="st0" x1="164.9" y1="0.3" x2="145.5" y2="19.7"/>
<line class="st0" x1="174.6" y1="0.3" x2="155.2" y2="19.7"/>
<line class="st0" x1="184.3" y1="0.3" x2="164.9" y2="19.7"/>
<line class="st0" x1="194" y1="0.3" x2="174.6" y2="19.7"/>
<line class="st0" x1="203.7" y1="0.3" x2="184.3" y2="19.7"/>
<line class="st0" x1="213.4" y1="0.3" x2="194" y2="19.7"/>
<line class="st0" x1="223.1" y1="0.3" x2="203.7" y2="19.7"/>
<line class="st0" x1="232.8" y1="0.3" x2="213.4" y2="19.7"/>
<line class="st0" x1="242.5" y1="0.3" x2="223.1" y2="19.7"/>
<line class="st0" x1="252.2" y1="0.3" x2="232.8" y2="19.7"/>
<line class="st0" x1="261.9" y1="0.3" x2="242.5" y2="19.7"/>
<line class="st0" x1="271.6" y1="0.3" x2="252.2" y2="19.7"/>
<line class="st0" x1="281.2" y1="0.3" x2="261.9" y2="19.7"/>
<line class="st0" x1="291" y1="0.3" x2="271.6" y2="19.7"/>
<line class="st0" x1="300.7" y1="0.3" x2="281.2" y2="19.7"/>
<line class="st0" x1="310.4" y1="0.3" x2="291" y2="19.7"/>
<line class="st0" x1="320.1" y1="0.3" x2="300.7" y2="19.7"/>
<line class="st0" x1="329.8" y1="0.3" x2="310.4" y2="19.7"/>
<line class="st0" x1="339.5" y1="0.3" x2="320.1" y2="19.7"/>
<line class="st0" x1="349.2" y1="0.3" x2="329.8" y2="19.7"/>
<line class="st0" x1="358.8" y1="0.3" x2="339.5" y2="19.7"/>
<line class="st0" x1="368.5" y1="0.3" x2="349.2" y2="19.7"/>
<line class="st0" x1="378.2" y1="0.3" x2="358.8" y2="19.7"/>
<line class="st0" x1="388" y1="0.3" x2="368.5" y2="19.7"/>
<line class="st0" x1="397.7" y1="0.3" x2="378.2" y2="19.7"/>
<line class="st1" x1="50.2" y1="12.9" x2="291" y2="12.9"/>
<line class="st0" x1="87.3" y1="0.3" x2="67.9" y2="19.7"/>
<line class="st0" x1="97" y1="0.3" x2="77.6" y2="19.7"/>
<line class="st0" x1="106.7" y1="0.3" x2="87.3" y2="19.7"/>
<line class="st0" x1="116.4" y1="0.3" x2="97" y2="19.7"/>
<line class="st0" x1="126.1" y1="0.3" x2="106.7" y2="19.7"/>
<line class="st0" x1="135.8" y1="0.3" x2="116.4" y2="19.7"/>
<line class="st0" x1="145.5" y1="0.3" x2="126.1" y2="19.7"/>
<line class="st0" x1="155.2" y1="0.3" x2="135.8" y2="19.7"/>
<line class="st0" x1="164.9" y1="0.3" x2="145.5" y2="19.7"/>
<line class="st0" x1="174.6" y1="0.3" x2="155.2" y2="19.7"/>
<line class="st0" x1="184.3" y1="0.3" x2="164.9" y2="19.7"/>
<line class="st0" x1="194" y1="0.3" x2="174.6" y2="19.7"/>
<line class="st0" x1="203.7" y1="0.3" x2="184.3" y2="19.7"/>
<line class="st0" x1="213.4" y1="0.3" x2="194" y2="19.7"/>
<line class="st0" x1="223.1" y1="0.3" x2="203.7" y2="19.7"/>
<line class="st0" x1="232.8" y1="0.3" x2="213.4" y2="19.7"/>
<line class="st0" x1="242.5" y1="0.3" x2="223.1" y2="19.7"/>
<line class="st0" x1="252.2" y1="0.3" x2="232.8" y2="19.7"/>
<line class="st0" x1="261.9" y1="0.3" x2="242.5" y2="19.7"/>
<line class="st0" x1="271.6" y1="0.3" x2="252.2" y2="19.7"/>
<line class="st0" x1="281.2" y1="0.3" x2="261.9" y2="19.7"/>
<line class="st0" x1="291" y1="0.3" x2="271.6" y2="19.7"/>
<line class="st0" x1="300.7" y1="0.3" x2="281.2" y2="19.7"/>
<line class="st0" x1="310.4" y1="0.3" x2="291" y2="19.7"/>
<line class="st0" x1="320.1" y1="0.3" x2="300.7" y2="19.7"/>
<line class="st0" x1="329.8" y1="0.3" x2="310.4" y2="19.7"/>
<line class="st0" x1="339.5" y1="0.3" x2="320.1" y2="19.7"/>
<line class="st0" x1="349.2" y1="0.3" x2="329.8" y2="19.7"/>
<line class="st0" x1="358.8" y1="0.3" x2="339.5" y2="19.7"/>
<line class="st0" x1="368.5" y1="0.3" x2="349.2" y2="19.7"/>
<line class="st0" x1="378.2" y1="0.3" x2="358.8" y2="19.7"/>
<line class="st0" x1="388" y1="0.3" x2="368.5" y2="19.7"/>
<line class="st0" x1="397.7" y1="0.3" x2="378.2" y2="19.7"/>
<line class="st0" x1="407.4" y1="0.3" x2="388" y2="19.7"/>
<line class="st1" x1="59.9" y1="12.9" x2="300.7" y2="12.9"/>
<line class="st0" x1="97" y1="0.3" x2="77.6" y2="19.7"/>
<line class="st0" x1="106.7" y1="0.3" x2="87.3" y2="19.7"/>
<line class="st0" x1="116.4" y1="0.3" x2="97" y2="19.7"/>
<line class="st0" x1="126.1" y1="0.3" x2="106.7" y2="19.7"/>
<line class="st0" x1="135.8" y1="0.3" x2="116.4" y2="19.7"/>
<line class="st0" x1="145.5" y1="0.3" x2="126.1" y2="19.7"/>
<line class="st0" x1="155.2" y1="0.3" x2="135.8" y2="19.7"/>
<line class="st0" x1="164.9" y1="0.3" x2="145.5" y2="19.7"/>
<line class="st0" x1="174.6" y1="0.3" x2="155.2" y2="19.7"/>
<line class="st0" x1="184.3" y1="0.3" x2="164.9" y2="19.7"/>
<line class="st0" x1="194" y1="0.3" x2="174.6" y2="19.7"/>
<line class="st0" x1="203.7" y1="0.3" x2="184.3" y2="19.7"/>
<line class="st0" x1="213.4" y1="0.3" x2="194" y2="19.7"/>
<line class="st0" x1="223.1" y1="0.3" x2="203.7" y2="19.7"/>
<line class="st0" x1="232.8" y1="0.3" x2="213.4" y2="19.7"/>
<line class="st0" x1="242.5" y1="0.3" x2="223.1" y2="19.7"/>
<line class="st0" x1="252.2" y1="0.3" x2="232.8" y2="19.7"/>
<line class="st0" x1="261.9" y1="0.3" x2="242.5" y2="19.7"/>
<line class="st0" x1="271.6" y1="0.3" x2="252.2" y2="19.7"/>
<line class="st0" x1="281.2" y1="0.3" x2="261.9" y2="19.7"/>
<line class="st0" x1="291" y1="0.3" x2="271.6" y2="19.7"/>
<line class="st0" x1="300.7" y1="0.3" x2="281.2" y2="19.7"/>
<line class="st0" x1="310.4" y1="0.3" x2="291" y2="19.7"/>
<line class="st0" x1="320.1" y1="0.3" x2="300.7" y2="19.7"/>
<line class="st0" x1="329.8" y1="0.3" x2="310.4" y2="19.7"/>
<line class="st0" x1="339.5" y1="0.3" x2="320.1" y2="19.7"/>
<line class="st0" x1="349.2" y1="0.3" x2="329.8" y2="19.7"/>
<line class="st0" x1="358.8" y1="0.3" x2="339.5" y2="19.7"/>
<line class="st0" x1="368.5" y1="0.3" x2="349.2" y2="19.7"/>
<line class="st0" x1="378.2" y1="0.3" x2="358.8" y2="19.7"/>
<line class="st0" x1="388" y1="0.3" x2="368.5" y2="19.7"/>
<line class="st0" x1="397.7" y1="0.3" x2="378.2" y2="19.7"/>
<line class="st0" x1="407.4" y1="0.3" x2="388" y2="19.7"/>
<line class="st0" x1="417.1" y1="0.3" x2="397.7" y2="19.7"/>
<line class="st1" x1="69.6" y1="12.9" x2="310.4" y2="12.9"/>
<line class="st0" x1="106.7" y1="0.3" x2="87.3" y2="19.7"/>
<line class="st0" x1="116.4" y1="0.3" x2="97" y2="19.7"/>
<line class="st0" x1="126.1" y1="0.3" x2="106.7" y2="19.7"/>
<line class="st0" x1="135.8" y1="0.3" x2="116.4" y2="19.7"/>
<line class="st0" x1="145.5" y1="0.3" x2="126.1" y2="19.7"/>
<line class="st0" x1="155.2" y1="0.3" x2="135.8" y2="19.7"/>
<line class="st0" x1="164.9" y1="0.3" x2="145.5" y2="19.7"/>
<line class="st0" x1="174.6" y1="0.3" x2="155.2" y2="19.7"/>
<line class="st0" x1="184.3" y1="0.3" x2="164.9" y2="19.7"/>
<line class="st0" x1="194" y1="0.3" x2="174.6" y2="19.7"/>
<line class="st0" x1="203.7" y1="0.3" x2="184.3" y2="19.7"/>
<line class="st0" x1="213.4" y1="0.3" x2="194" y2="19.7"/>
<line class="st0" x1="223.1" y1="0.3" x2="203.7" y2="19.7"/>
<line class="st0" x1="232.8" y1="0.3" x2="213.4" y2="19.7"/>
<line class="st0" x1="242.5" y1="0.3" x2="223.1" y2="19.7"/>
<line class="st0" x1="252.2" y1="0.3" x2="232.8" y2="19.7"/>
<line class="st0" x1="261.9" y1="0.3" x2="242.5" y2="19.7"/>
<line class="st0" x1="271.6" y1="0.3" x2="252.2" y2="19.7"/>
<line class="st0" x1="281.2" y1="0.3" x2="261.9" y2="19.7"/>
<line class="st0" x1="291" y1="0.3" x2="271.6" y2="19.7"/>
<line class="st0" x1="300.7" y1="0.3" x2="281.2" y2="19.7"/>
<line class="st0" x1="310.4" y1="0.3" x2="291" y2="19.7"/>
<line class="st0" x1="320.1" y1="0.3" x2="300.7" y2="19.7"/>
<line class="st0" x1="329.8" y1="0.3" x2="310.4" y2="19.7"/>
<line class="st0" x1="339.5" y1="0.3" x2="320.1" y2="19.7"/>
<line class="st0" x1="349.2" y1="0.3" x2="329.8" y2="19.7"/>
<line class="st0" x1="358.8" y1="0.3" x2="339.5" y2="19.7"/>
<line class="st0" x1="368.5" y1="0.3" x2="349.2" y2="19.7"/>
<line class="st0" x1="378.2" y1="0.3" x2="358.8" y2="19.7"/>
<line class="st0" x1="388" y1="0.3" x2="368.5" y2="19.7"/>
<line class="st0" x1="397.7" y1="0.3" x2="378.2" y2="19.7"/>
<line class="st0" x1="407.4" y1="0.3" x2="388" y2="19.7"/>
<line class="st0" x1="417.1" y1="0.3" x2="397.7" y2="19.7"/>
<line class="st0" x1="426.8" y1="0.3" x2="407.4" y2="19.7"/>
<line class="st1" x1="79.3" y1="12.9" x2="320.1" y2="12.9"/>
<line class="st0" x1="116.4" y1="0.3" x2="97" y2="19.7"/>
<line class="st0" x1="126.1" y1="0.3" x2="106.7" y2="19.7"/>
<line class="st0" x1="135.8" y1="0.3" x2="116.4" y2="19.7"/>
<line class="st0" x1="145.5" y1="0.3" x2="126.1" y2="19.7"/>
<line class="st0" x1="155.2" y1="0.3" x2="135.8" y2="19.7"/>
<line class="st0" x1="164.9" y1="0.3" x2="145.5" y2="19.7"/>
<line class="st0" x1="174.6" y1="0.3" x2="155.2" y2="19.7"/>
<line class="st0" x1="184.3" y1="0.3" x2="164.9" y2="19.7"/>
<line class="st0" x1="194" y1="0.3" x2="174.6" y2="19.7"/>
<line class="st0" x1="203.7" y1="0.3" x2="184.3" y2="19.7"/>
<line class="st0" x1="213.4" y1="0.3" x2="194" y2="19.7"/>
<line class="st0" x1="223.1" y1="0.3" x2="203.7" y2="19.7"/>
<line class="st0" x1="232.8" y1="0.3" x2="213.4" y2="19.7"/>
<line class="st0" x1="242.5" y1="0.3" x2="223.1" y2="19.7"/>
<line class="st0" x1="252.2" y1="0.3" x2="232.8" y2="19.7"/>
<line class="st0" x1="261.9" y1="0.3" x2="242.5" y2="19.7"/>
<line class="st0" x1="271.6" y1="0.3" x2="252.2" y2="19.7"/>
<line class="st0" x1="281.2" y1="0.3" x2="261.9" y2="19.7"/>
<line class="st0" x1="291" y1="0.3" x2="271.6" y2="19.7"/>
<line class="st0" x1="300.7" y1="0.3" x2="281.2" y2="19.7"/>
<line class="st0" x1="310.4" y1="0.3" x2="291" y2="19.7"/>
<line class="st0" x1="320.1" y1="0.3" x2="300.7" y2="19.7"/>
<line class="st0" x1="329.8" y1="0.3" x2="310.4" y2="19.7"/>
<line class="st0" x1="339.5" y1="0.3" x2="320.1" y2="19.7"/>
<line class="st0" x1="349.2" y1="0.3" x2="329.8" y2="19.7"/>
<line class="st0" x1="358.8" y1="0.3" x2="339.5" y2="19.7"/>
<line class="st0" x1="368.5" y1="0.3" x2="349.2" y2="19.7"/>
<line class="st0" x1="378.2" y1="0.3" x2="358.8" y2="19.7"/>
<line class="st0" x1="388" y1="0.3" x2="368.5" y2="19.7"/>
<line class="st0" x1="397.7" y1="0.3" x2="378.2" y2="19.7"/>
<line class="st0" x1="407.4" y1="0.3" x2="388" y2="19.7"/>
<line class="st0" x1="417.1" y1="0.3" x2="397.7" y2="19.7"/>
<line class="st0" x1="426.8" y1="0.3" x2="407.4" y2="19.7"/>
<line class="st0" x1="436.4" y1="0.3" x2="417.1" y2="19.7"/>
<line class="st1" x1="89" y1="12.9" x2="329.8" y2="12.9"/>
<line class="st0" x1="126.1" y1="0.3" x2="106.7" y2="19.7"/>
<line class="st0" x1="135.8" y1="0.3" x2="116.4" y2="19.7"/>
<line class="st0" x1="145.5" y1="0.3" x2="126.1" y2="19.7"/>
<line class="st0" x1="155.2" y1="0.3" x2="135.8" y2="19.7"/>
<line class="st0" x1="164.9" y1="0.3" x2="145.5" y2="19.7"/>
<line class="st0" x1="174.6" y1="0.3" x2="155.2" y2="19.7"/>
<line class="st0" x1="184.3" y1="0.3" x2="164.9" y2="19.7"/>
<line class="st0" x1="194" y1="0.3" x2="174.6" y2="19.7"/>
<line class="st0" x1="203.7" y1="0.3" x2="184.3" y2="19.7"/>
<line class="st0" x1="213.4" y1="0.3" x2="194" y2="19.7"/>
<line class="st0" x1="223.1" y1="0.3" x2="203.7" y2="19.7"/>
<line class="st0" x1="232.8" y1="0.3" x2="213.4" y2="19.7"/>
<line class="st0" x1="242.5" y1="0.3" x2="223.1" y2="19.7"/>
<line class="st0" x1="252.2" y1="0.3" x2="232.8" y2="19.7"/>
<line class="st0" x1="261.9" y1="0.3" x2="242.5" y2="19.7"/>
<line class="st0" x1="271.6" y1="0.3" x2="252.2" y2="19.7"/>
<line class="st0" x1="281.2" y1="0.3" x2="261.9" y2="19.7"/>
<line class="st0" x1="291" y1="0.3" x2="271.6" y2="19.7"/>
<line class="st0" x1="300.7" y1="0.3" x2="281.2" y2="19.7"/>
<line class="st0" x1="310.4" y1="0.3" x2="291" y2="19.7"/>
<line class="st0" x1="320.1" y1="0.3" x2="300.7" y2="19.7"/>
<line class="st0" x1="329.8" y1="0.3" x2="310.4" y2="19.7"/>
<line class="st0" x1="339.5" y1="0.3" x2="320.1" y2="19.7"/>
<line class="st0" x1="349.2" y1="0.3" x2="329.8" y2="19.7"/>
<line class="st0" x1="358.8" y1="0.3" x2="339.5" y2="19.7"/>
<line class="st0" x1="368.5" y1="0.3" x2="349.2" y2="19.7"/>
<line class="st0" x1="378.2" y1="0.3" x2="358.8" y2="19.7"/>
<line class="st0" x1="388" y1="0.3" x2="368.5" y2="19.7"/>
<line class="st0" x1="397.7" y1="0.3" x2="378.2" y2="19.7"/>
<line class="st0" x1="407.4" y1="0.3" x2="388" y2="19.7"/>
<line class="st0" x1="417.1" y1="0.3" x2="397.7" y2="19.7"/>
<line class="st0" x1="426.8" y1="0.3" x2="407.4" y2="19.7"/>
<line class="st0" x1="436.4" y1="0.3" x2="417.1" y2="19.7"/>
<line class="st0" x1="446.1" y1="0.3" x2="426.8" y2="19.7"/>
<line class="st1" x1="98.7" y1="12.9" x2="339.5" y2="12.9"/>
<line class="st0" x1="135.8" y1="0.3" x2="116.4" y2="19.7"/>
<line class="st0" x1="145.5" y1="0.3" x2="126.1" y2="19.7"/>
<line class="st0" x1="155.2" y1="0.3" x2="135.8" y2="19.7"/>
<line class="st0" x1="164.9" y1="0.3" x2="145.5" y2="19.7"/>
<line class="st0" x1="174.6" y1="0.3" x2="155.2" y2="19.7"/>
<line class="st0" x1="184.3" y1="0.3" x2="164.9" y2="19.7"/>
<line class="st0" x1="194" y1="0.3" x2="174.6" y2="19.7"/>
<line class="st0" x1="203.7" y1="0.3" x2="184.3" y2="19.7"/>
<line class="st0" x1="213.4" y1="0.3" x2="194" y2="19.7"/>
<line class="st0" x1="223.1" y1="0.3" x2="203.7" y2="19.7"/>
<line class="st0" x1="232.8" y1="0.3" x2="213.4" y2="19.7"/>
<line class="st0" x1="242.5" y1="0.3" x2="223.1" y2="19.7"/>
<line class="st0" x1="252.2" y1="0.3" x2="232.8" y2="19.7"/>
<line class="st0" x1="261.9" y1="0.3" x2="242.5" y2="19.7"/>
<line class="st0" x1="271.6" y1="0.3" x2="252.2" y2="19.7"/>
<line class="st0" x1="281.2" y1="0.3" x2="261.9" y2="19.7"/>
<line class="st0" x1="291" y1="0.3" x2="271.6" y2="19.7"/>
<line class="st0" x1="300.7" y1="0.3" x2="281.2" y2="19.7"/>
<line class="st0" x1="310.4" y1="0.3" x2="291" y2="19.7"/>
<line class="st0" x1="320.1" y1="0.3" x2="300.7" y2="19.7"/>
<line class="st0" x1="329.8" y1="0.3" x2="310.4" y2="19.7"/>
<line class="st0" x1="339.5" y1="0.3" x2="320.1" y2="19.7"/>
<line class="st0" x1="349.2" y1="0.3" x2="329.8" y2="19.7"/>
<line class="st0" x1="358.8" y1="0.3" x2="339.5" y2="19.7"/>
<line class="st0" x1="368.5" y1="0.3" x2="349.2" y2="19.7"/>
<line class="st0" x1="378.2" y1="0.3" x2="358.8" y2="19.7"/>
<line class="st0" x1="388" y1="0.3" x2="368.5" y2="19.7"/>
<line class="st0" x1="397.7" y1="0.3" x2="378.2" y2="19.7"/>
<line class="st0" x1="407.4" y1="0.3" x2="388" y2="19.7"/>
<line class="st0" x1="417.1" y1="0.3" x2="397.7" y2="19.7"/>
<line class="st0" x1="426.8" y1="0.3" x2="407.4" y2="19.7"/>
<line class="st0" x1="436.4" y1="0.3" x2="417.1" y2="19.7"/>
<line class="st0" x1="446.1" y1="0.3" x2="426.8" y2="19.7"/>
<line class="st0" x1="455.8" y1="0.3" x2="436.4" y2="19.7"/>
<line class="st1" x1="108.4" y1="12.9" x2="349.2" y2="12.9"/>
<line class="st0" x1="145.5" y1="0.3" x2="126.1" y2="19.7"/>
<line class="st0" x1="155.2" y1="0.3" x2="135.8" y2="19.7"/>
<line class="st0" x1="164.9" y1="0.3" x2="145.5" y2="19.7"/>
<line class="st0" x1="174.6" y1="0.3" x2="155.2" y2="19.7"/>
<line class="st0" x1="184.3" y1="0.3" x2="164.9" y2="19.7"/>
<line class="st0" x1="194" y1="0.3" x2="174.6" y2="19.7"/>
<line class="st0" x1="203.7" y1="0.3" x2="184.3" y2="19.7"/>
<line class="st0" x1="213.4" y1="0.3" x2="194" y2="19.7"/>
<line class="st0" x1="223.1" y1="0.3" x2="203.7" y2="19.7"/>
<line class="st0" x1="232.8" y1="0.3" x2="213.4" y2="19.7"/>
<line class="st0" x1="242.5" y1="0.3" x2="223.1" y2="19.7"/>
<line class="st0" x1="252.2" y1="0.3" x2="232.8" y2="19.7"/>
<line class="st0" x1="261.9" y1="0.3" x2="242.5" y2="19.7"/>
<line class="st0" x1="271.6" y1="0.3" x2="252.2" y2="19.7"/>
<line class="st0" x1="281.2" y1="0.3" x2="261.9" y2="19.7"/>
<line class="st0" x1="291" y1="0.3" x2="271.6" y2="19.7"/>
<line class="st0" x1="300.7" y1="0.3" x2="281.2" y2="19.7"/>
<line class="st0" x1="310.4" y1="0.3" x2="291" y2="19.7"/>
<line class="st0" x1="320.1" y1="0.3" x2="300.7" y2="19.7"/>
<line class="st0" x1="329.8" y1="0.3" x2="310.4" y2="19.7"/>
<line class="st0" x1="339.5" y1="0.3" x2="320.1" y2="19.7"/>
<line class="st0" x1="349.2" y1="0.3" x2="329.8" y2="19.7"/>
<line class="st0" x1="358.8" y1="0.3" x2="339.5" y2="19.7"/>
<line class="st0" x1="368.5" y1="0.3" x2="349.2" y2="19.7"/>
<line class="st0" x1="378.2" y1="0.3" x2="358.8" y2="19.7"/>
<line class="st0" x1="388" y1="0.3" x2="368.5" y2="19.7"/>
<line class="st0" x1="397.7" y1="0.3" x2="378.2" y2="19.7"/>
<line class="st0" x1="407.4" y1="0.3" x2="388" y2="19.7"/>
<line class="st0" x1="417.1" y1="0.3" x2="397.7" y2="19.7"/>
<line class="st0" x1="426.8" y1="0.3" x2="407.4" y2="19.7"/>
<line class="st0" x1="436.4" y1="0.3" x2="417.1" y2="19.7"/>
<line class="st0" x1="446.1" y1="0.3" x2="426.8" y2="19.7"/>
<line class="st0" x1="455.8" y1="0.3" x2="436.4" y2="19.7"/>
<line class="st0" x1="465.5" y1="0.3" x2="446.1" y2="19.7"/>
<line class="st1" x1="118.1" y1="12.9" x2="358.8" y2="12.9"/>
<line class="st0" x1="155.2" y1="0.3" x2="135.8" y2="19.7"/>
<line class="st0" x1="164.9" y1="0.3" x2="145.5" y2="19.7"/>
<line class="st0" x1="174.6" y1="0.3" x2="155.2" y2="19.7"/>
<line class="st0" x1="184.3" y1="0.3" x2="164.9" y2="19.7"/>
<line class="st0" x1="194" y1="0.3" x2="174.6" y2="19.7"/>
<line class="st0" x1="203.7" y1="0.3" x2="184.3" y2="19.7"/>
<line class="st0" x1="213.4" y1="0.3" x2="194" y2="19.7"/>
<line class="st0" x1="223.1" y1="0.3" x2="203.7" y2="19.7"/>
<line class="st0" x1="232.8" y1="0.3" x2="213.4" y2="19.7"/>
<line class="st0" x1="242.5" y1="0.3" x2="223.1" y2="19.7"/>
<line class="st0" x1="252.2" y1="0.3" x2="232.8" y2="19.7"/>
<line class="st0" x1="261.9" y1="0.3" x2="242.5" y2="19.7"/>
<line class="st0" x1="271.6" y1="0.3" x2="252.2" y2="19.7"/>
<line class="st0" x1="281.2" y1="0.3" x2="261.9" y2="19.7"/>
<line class="st0" x1="291" y1="0.3" x2="271.6" y2="19.7"/>
<line class="st0" x1="300.7" y1="0.3" x2="281.2" y2="19.7"/>
<line class="st0" x1="310.4" y1="0.3" x2="291" y2="19.7"/>
<line class="st0" x1="320.1" y1="0.3" x2="300.7" y2="19.7"/>
<line class="st0" x1="329.8" y1="0.3" x2="310.4" y2="19.7"/>
<line class="st0" x1="19.4" y1="0.3" x2="0" y2="19.7"/>
<line class="st0" x1="29.1" y1="0.3" x2="9.7" y2="19.7"/>
<line class="st0" x1="38.8" y1="0.3" x2="19.4" y2="19.7"/>
<line class="st0" x1="48.5" y1="0.3" x2="29.1" y2="19.7"/>
<line class="st0" x1="58.2" y1="0.3" x2="38.8" y2="19.7"/>
<line class="st0" x1="67.9" y1="0.3" x2="48.5" y2="19.7"/>
<line class="st0" x1="77.6" y1="0.3" x2="58.2" y2="19.7"/>
<line class="st0" x1="87.3" y1="0.3" x2="67.9" y2="19.7"/>
<line class="st0" x1="97" y1="0.3" x2="77.6" y2="19.7"/>
<line class="st0" x1="106.7" y1="0.3" x2="87.3" y2="19.7"/>
<line class="st0" x1="116.4" y1="0.3" x2="97" y2="19.7"/>
<line class="st0" x1="126.1" y1="0.3" x2="106.7" y2="19.7"/>
<line class="st0" x1="135.8" y1="0.3" x2="116.4" y2="19.7"/>
<line class="st0" x1="145.5" y1="0.3" x2="126.1" y2="19.7"/>
<line class="st0" x1="155.2" y1="0.3" x2="135.8" y2="19.7"/>
<line class="st0" x1="164.9" y1="0.3" x2="145.5" y2="19.7"/>
<line class="st0" x1="174.6" y1="0.3" x2="155.2" y2="19.7"/>
<line class="st0" x1="184.3" y1="0.3" x2="164.9" y2="19.7"/>
<line class="st0" x1="194" y1="0.3" x2="174.6" y2="19.7"/>
<line class="st0" x1="203.7" y1="0.3" x2="184.3" y2="19.7"/>
<line class="st0" x1="213.4" y1="0.3" x2="194" y2="19.7"/>
<line class="st0" x1="223.1" y1="0.3" x2="203.7" y2="19.7"/>
<line class="st0" x1="232.8" y1="0.3" x2="213.4" y2="19.7"/>
<line class="st0" x1="242.5" y1="0.3" x2="223.1" y2="19.7"/>
<line class="st0" x1="252.2" y1="0.3" x2="232.8" y2="19.7"/>
<line class="st0" x1="261.9" y1="0.3" x2="242.5" y2="19.7"/>
<line class="st0" x1="271.6" y1="0.3" x2="252.2" y2="19.7"/>
<line class="st0" x1="281.2" y1="0.3" x2="261.9" y2="19.7"/>
<line class="st0" x1="291" y1="0.3" x2="271.6" y2="19.7"/>
<line class="st0" x1="300.7" y1="0.3" x2="281.2" y2="19.7"/>
<line class="st0" x1="310.4" y1="0.3" x2="291" y2="19.7"/>
<line class="st0" x1="320.1" y1="0.3" x2="300.7" y2="19.7"/>
<line class="st0" x1="329.8" y1="0.3" x2="310.4" y2="19.7"/>
<line class="st0" x1="339.5" y1="0.3" x2="320.1" y2="19.7"/>
<line class="st0" x1="19.4" y1="0.3" x2="0" y2="19.7"/>
<line class="st0" x1="29.1" y1="0.3" x2="9.7" y2="19.7"/>
<line class="st0" x1="38.8" y1="0.3" x2="19.4" y2="19.7"/>
<line class="st0" x1="48.5" y1="0.3" x2="29.1" y2="19.7"/>
<line class="st0" x1="58.2" y1="0.3" x2="38.8" y2="19.7"/>
<line class="st0" x1="67.9" y1="0.3" x2="48.5" y2="19.7"/>
<line class="st0" x1="77.6" y1="0.3" x2="58.2" y2="19.7"/>
<line class="st0" x1="87.3" y1="0.3" x2="67.9" y2="19.7"/>
<line class="st0" x1="97" y1="0.3" x2="77.6" y2="19.7"/>
<line class="st0" x1="106.7" y1="0.3" x2="87.3" y2="19.7"/>
<line class="st0" x1="116.4" y1="0.3" x2="97" y2="19.7"/>
<line class="st0" x1="126.1" y1="0.3" x2="106.7" y2="19.7"/>
<line class="st0" x1="135.8" y1="0.3" x2="116.4" y2="19.7"/>
<line class="st0" x1="145.5" y1="0.3" x2="126.1" y2="19.7"/>
<line class="st0" x1="155.2" y1="0.3" x2="135.8" y2="19.7"/>
<line class="st0" x1="164.9" y1="0.3" x2="145.5" y2="19.7"/>
<line class="st0" x1="174.6" y1="0.3" x2="155.2" y2="19.7"/>
<line class="st0" x1="184.3" y1="0.3" x2="164.9" y2="19.7"/>
<line class="st0" x1="194" y1="0.3" x2="174.6" y2="19.7"/>
<line class="st0" x1="203.7" y1="0.3" x2="184.3" y2="19.7"/>
<line class="st0" x1="213.4" y1="0.3" x2="194" y2="19.7"/>
<line class="st0" x1="223.1" y1="0.3" x2="203.7" y2="19.7"/>
<line class="st0" x1="232.8" y1="0.3" x2="213.4" y2="19.7"/>
<line class="st0" x1="242.5" y1="0.3" x2="223.1" y2="19.7"/>
<line class="st0" x1="252.2" y1="0.3" x2="232.8" y2="19.7"/>
<line class="st0" x1="261.9" y1="0.3" x2="242.5" y2="19.7"/>
<line class="st0" x1="271.6" y1="0.3" x2="252.2" y2="19.7"/>
<line class="st0" x1="281.2" y1="0.3" x2="261.9" y2="19.7"/>
<line class="st0" x1="291" y1="0.3" x2="271.6" y2="19.7"/>
<line class="st0" x1="300.7" y1="0.3" x2="281.2" y2="19.7"/>
<line class="st0" x1="310.4" y1="0.3" x2="291" y2="19.7"/>
<line class="st0" x1="320.1" y1="0.3" x2="300.7" y2="19.7"/>
<line class="st0" x1="329.8" y1="0.3" x2="310.4" y2="19.7"/>
<line class="st0" x1="339.5" y1="0.3" x2="320.1" y2="19.7"/>
<line class="st0" x1="19.4" y1="0.3" x2="0" y2="19.7"/>
<line class="st0" x1="29.1" y1="0.3" x2="9.7" y2="19.7"/>
<line class="st0" x1="38.8" y1="0.3" x2="19.4" y2="19.7"/>
<line class="st0" x1="48.5" y1="0.3" x2="29.1" y2="19.7"/>
<line class="st0" x1="58.2" y1="0.3" x2="38.8" y2="19.7"/>
<line class="st0" x1="67.9" y1="0.3" x2="48.5" y2="19.7"/>
<line class="st0" x1="77.6" y1="0.3" x2="58.2" y2="19.7"/>
<line class="st0" x1="87.3" y1="0.3" x2="67.9" y2="19.7"/>
<line class="st0" x1="97" y1="0.3" x2="77.6" y2="19.7"/>
<line class="st0" x1="106.7" y1="0.3" x2="87.3" y2="19.7"/>
<line class="st0" x1="116.4" y1="0.3" x2="97" y2="19.7"/>
<line class="st0" x1="126.1" y1="0.3" x2="106.7" y2="19.7"/>
<line class="st0" x1="135.8" y1="0.3" x2="116.4" y2="19.7"/>
<line class="st0" x1="145.5" y1="0.3" x2="126.1" y2="19.7"/>
<line class="st0" x1="155.2" y1="0.3" x2="135.8" y2="19.7"/>
<line class="st0" x1="164.9" y1="0.3" x2="145.5" y2="19.7"/>
<line class="st0" x1="174.6" y1="0.3" x2="155.2" y2="19.7"/>
<line class="st0" x1="184.3" y1="0.3" x2="164.9" y2="19.7"/>
<line class="st0" x1="194" y1="0.3" x2="174.6" y2="19.7"/>
<line class="st0" x1="203.7" y1="0.3" x2="184.3" y2="19.7"/>
<line class="st0" x1="213.4" y1="0.3" x2="194" y2="19.7"/>
<line class="st0" x1="223.1" y1="0.3" x2="203.7" y2="19.7"/>
<line class="st0" x1="232.8" y1="0.3" x2="213.4" y2="19.7"/>
<line class="st0" x1="242.5" y1="0.3" x2="223.1" y2="19.7"/>
<line class="st0" x1="252.2" y1="0.3" x2="232.8" y2="19.7"/>
<line class="st0" x1="261.9" y1="0.3" x2="242.5" y2="19.7"/>
<line class="st0" x1="271.6" y1="0.3" x2="252.2" y2="19.7"/>
<line class="st0" x1="281.2" y1="0.3" x2="261.9" y2="19.7"/>
<line class="st0" x1="291" y1="0.3" x2="271.6" y2="19.7"/>
<line class="st0" x1="300.7" y1="0.3" x2="281.2" y2="19.7"/>
<line class="st0" x1="310.4" y1="0.3" x2="291" y2="19.7"/>
<line class="st0" x1="320.1" y1="0.3" x2="300.7" y2="19.7"/>
<line class="st0" x1="329.8" y1="0.3" x2="310.4" y2="19.7"/>
<line class="st0" x1="339.5" y1="0.3" x2="320.1" y2="19.7"/>
<line class="st0" x1="19.4" y1="0.3" x2="0" y2="19.7"/>
<line class="st0" x1="29.1" y1="0.3" x2="9.7" y2="19.7"/>
<line class="st0" x1="38.8" y1="0.3" x2="19.4" y2="19.7"/>
<line class="st0" x1="48.5" y1="0.3" x2="29.1" y2="19.7"/>
<line class="st0" x1="58.2" y1="0.3" x2="38.8" y2="19.7"/>
<line class="st0" x1="67.9" y1="0.3" x2="48.5" y2="19.7"/>
<line class="st0" x1="77.6" y1="0.3" x2="58.2" y2="19.7"/>
<line class="st0" x1="87.3" y1="0.3" x2="67.9" y2="19.7"/>
<line class="st0" x1="97" y1="0.3" x2="77.6" y2="19.7"/>
<line class="st0" x1="106.7" y1="0.3" x2="87.3" y2="19.7"/>
<line class="st0" x1="116.4" y1="0.3" x2="97" y2="19.7"/>
<line class="st0" x1="126.1" y1="0.3" x2="106.7" y2="19.7"/>
<line class="st0" x1="135.8" y1="0.3" x2="116.4" y2="19.7"/>
<line class="st0" x1="145.5" y1="0.3" x2="126.1" y2="19.7"/>
<line class="st0" x1="155.2" y1="0.3" x2="135.8" y2="19.7"/>
<line class="st0" x1="164.9" y1="0.3" x2="145.5" y2="19.7"/>
<line class="st0" x1="174.6" y1="0.3" x2="155.2" y2="19.7"/>
<line class="st0" x1="184.3" y1="0.3" x2="164.9" y2="19.7"/>
<line class="st0" x1="194" y1="0.3" x2="174.6" y2="19.7"/>
<line class="st0" x1="203.7" y1="0.3" x2="184.3" y2="19.7"/>
<line class="st0" x1="213.4" y1="0.3" x2="194" y2="19.7"/>
<line class="st0" x1="223.1" y1="0.3" x2="203.7" y2="19.7"/>
<line class="st0" x1="232.8" y1="0.3" x2="213.4" y2="19.7"/>
<line class="st0" x1="242.5" y1="0.3" x2="223.1" y2="19.7"/>
<line class="st0" x1="252.2" y1="0.3" x2="232.8" y2="19.7"/>
<line class="st0" x1="261.9" y1="0.3" x2="242.5" y2="19.7"/>
<line class="st0" x1="271.6" y1="0.3" x2="252.2" y2="19.7"/>
<line class="st0" x1="281.2" y1="0.3" x2="261.9" y2="19.7"/>
<line class="st0" x1="291" y1="0.3" x2="271.6" y2="19.7"/>
<line class="st0" x1="300.7" y1="0.3" x2="281.2" y2="19.7"/>
<line class="st0" x1="310.4" y1="0.3" x2="291" y2="19.7"/>
<line class="st0" x1="320.1" y1="0.3" x2="300.7" y2="19.7"/>
<line class="st0" x1="329.8" y1="0.3" x2="310.4" y2="19.7"/>
<line class="st0" x1="339.5" y1="0.3" x2="320.1" y2="19.7"/>
<line class="st0" x1="19.4" y1="0.3" x2="0" y2="19.7"/>
<line class="st0" x1="29.1" y1="0.3" x2="9.7" y2="19.7"/>
<line class="st0" x1="38.8" y1="0.3" x2="19.4" y2="19.7"/>
<line class="st0" x1="48.5" y1="0.3" x2="29.1" y2="19.7"/>
<line class="st0" x1="58.2" y1="0.3" x2="38.8" y2="19.7"/>
<line class="st0" x1="67.9" y1="0.3" x2="48.5" y2="19.7"/>
<line class="st0" x1="77.6" y1="0.3" x2="58.2" y2="19.7"/>
<line class="st0" x1="87.3" y1="0.3" x2="67.9" y2="19.7"/>
<line class="st0" x1="97" y1="0.3" x2="77.6" y2="19.7"/>
<line class="st0" x1="106.7" y1="0.3" x2="87.3" y2="19.7"/>
<line class="st0" x1="116.4" y1="0.3" x2="97" y2="19.7"/>
<line class="st0" x1="126.1" y1="0.3" x2="106.7" y2="19.7"/>
<line class="st0" x1="135.8" y1="0.3" x2="116.4" y2="19.7"/>
<line class="st0" x1="145.5" y1="0.3" x2="126.1" y2="19.7"/>
<line class="st0" x1="155.2" y1="0.3" x2="135.8" y2="19.7"/>
<line class="st0" x1="164.9" y1="0.3" x2="145.5" y2="19.7"/>
<line class="st0" x1="174.6" y1="0.3" x2="155.2" y2="19.7"/>
<line class="st0" x1="184.3" y1="0.3" x2="164.9" y2="19.7"/>
<line class="st0" x1="194" y1="0.3" x2="174.6" y2="19.7"/>
<line class="st0" x1="203.7" y1="0.3" x2="184.3" y2="19.7"/>
<line class="st0" x1="213.4" y1="0.3" x2="194" y2="19.7"/>
<line class="st0" x1="223.1" y1="0.3" x2="203.7" y2="19.7"/>
<line class="st0" x1="232.8" y1="0.3" x2="213.4" y2="19.7"/>
<line class="st0" x1="242.5" y1="0.3" x2="223.1" y2="19.7"/>
<line class="st0" x1="252.2" y1="0.3" x2="232.8" y2="19.7"/>
<line class="st0" x1="261.9" y1="0.3" x2="242.5" y2="19.7"/>
<line class="st0" x1="271.6" y1="0.3" x2="252.2" y2="19.7"/>
<line class="st0" x1="281.2" y1="0.3" x2="261.9" y2="19.7"/>
<line class="st0" x1="291" y1="0.3" x2="271.6" y2="19.7"/>
<line class="st0" x1="300.7" y1="0.3" x2="281.2" y2="19.7"/>
<line class="st0" x1="310.4" y1="0.3" x2="291" y2="19.7"/>
<line class="st0" x1="320.1" y1="0.3" x2="300.7" y2="19.7"/>
<line class="st0" x1="329.8" y1="0.3" x2="310.4" y2="19.7"/>
<line class="st0" x1="339.5" y1="0.3" x2="320.1" y2="19.7"/>
<line class="st0" x1="19.4" y1="0.3" x2="0" y2="19.7"/>
<line class="st0" x1="29.1" y1="0.3" x2="9.7" y2="19.7"/>
<line class="st0" x1="38.8" y1="0.3" x2="19.4" y2="19.7"/>
<line class="st0" x1="48.5" y1="0.3" x2="29.1" y2="19.7"/>
<line class="st0" x1="58.2" y1="0.3" x2="38.8" y2="19.7"/>
<line class="st0" x1="67.9" y1="0.3" x2="48.5" y2="19.7"/>
<line class="st0" x1="77.6" y1="0.3" x2="58.2" y2="19.7"/>
<line class="st0" x1="87.3" y1="0.3" x2="67.9" y2="19.7"/>
<line class="st0" x1="97" y1="0.3" x2="77.6" y2="19.7"/>
<line class="st0" x1="106.7" y1="0.3" x2="87.3" y2="19.7"/>
<line class="st0" x1="116.4" y1="0.3" x2="97" y2="19.7"/>
<line class="st0" x1="126.1" y1="0.3" x2="106.7" y2="19.7"/>
<line class="st0" x1="135.8" y1="0.3" x2="116.4" y2="19.7"/>
<line class="st0" x1="145.5" y1="0.3" x2="126.1" y2="19.7"/>
<line class="st0" x1="155.2" y1="0.3" x2="135.8" y2="19.7"/>
<line class="st0" x1="164.9" y1="0.3" x2="145.5" y2="19.7"/>
<line class="st0" x1="174.6" y1="0.3" x2="155.2" y2="19.7"/>
<line class="st0" x1="184.3" y1="0.3" x2="164.9" y2="19.7"/>
<line class="st0" x1="194" y1="0.3" x2="174.6" y2="19.7"/>
<line class="st0" x1="203.7" y1="0.3" x2="184.3" y2="19.7"/>
<line class="st0" x1="213.4" y1="0.3" x2="194" y2="19.7"/>
<line class="st0" x1="223.1" y1="0.3" x2="203.7" y2="19.7"/>
<line class="st0" x1="232.8" y1="0.3" x2="213.4" y2="19.7"/>
<line class="st0" x1="242.5" y1="0.3" x2="223.1" y2="19.7"/>
<line class="st0" x1="252.2" y1="0.3" x2="232.8" y2="19.7"/>
<line class="st0" x1="261.9" y1="0.3" x2="242.5" y2="19.7"/>
<line class="st0" x1="271.6" y1="0.3" x2="252.2" y2="19.7"/>
<line class="st0" x1="281.2" y1="0.3" x2="261.9" y2="19.7"/>
<line class="st0" x1="291" y1="0.3" x2="271.6" y2="19.7"/>
<line class="st0" x1="300.7" y1="0.3" x2="281.2" y2="19.7"/>
<line class="st0" x1="310.4" y1="0.3" x2="291" y2="19.7"/>
<line class="st0" x1="320.1" y1="0.3" x2="300.7" y2="19.7"/>
<line class="st0" x1="329.8" y1="0.3" x2="310.4" y2="19.7"/>
<line class="st0" x1="339.5" y1="0.3" x2="320.1" y2="19.7"/>
<line class="st0" x1="339.5" y1="0.3" x2="320.1" y2="19.7"/>
<line class="st0" x1="349.2" y1="0.3" x2="329.8" y2="19.7"/>
<line class="st0" x1="358.8" y1="0.3" x2="339.5" y2="19.7"/>
<line class="st0" x1="368.5" y1="0.3" x2="349.2" y2="19.7"/>
<line class="st0" x1="378.2" y1="0.3" x2="358.8" y2="19.7"/>
<line class="st0" x1="388" y1="0.3" x2="368.5" y2="19.7"/>
<line class="st0" x1="397.7" y1="0.3" x2="378.2" y2="19.7"/>
<line class="st0" x1="407.4" y1="0.3" x2="388" y2="19.7"/>
<line class="st0" x1="417.1" y1="0.3" x2="397.7" y2="19.7"/>
<line class="st0" x1="426.8" y1="0.3" x2="407.4" y2="19.7"/>
<line class="st0" x1="436.4" y1="0.3" x2="417.1" y2="19.7"/>
<line class="st0" x1="446.1" y1="0.3" x2="426.8" y2="19.7"/>
<line class="st0" x1="455.8" y1="0.3" x2="436.4" y2="19.7"/>
<line class="st0" x1="465.5" y1="0.3" x2="446.1" y2="19.7"/>
<line class="st0" x1="475.2" y1="0.3" x2="455.8" y2="19.7"/>
<line class="st2" x1="0.3" y1="10.3" x2="475.5" y2="10.3"/>
</svg>
