<?xml version="1.0" encoding="utf-8"?>
<!-- Generator: Adobe Illustrator 21.1.0, SVG Export Plug-In . SVG Version: 6.00 Build 0)  -->
<svg version="1.1" id="Layer_1" xmlns="http://www.w3.org/2000/svg" xmlns:xlink="http://www.w3.org/1999/xlink" x="0px" y="0px"
	 viewBox="0 0 170 110" style="enable-background:new 0 0 170 110;" xml:space="preserve">
<style type="text/css">
	.st0{fill:#F2224A;}
	.st1{fill:#FFFFFF;}
</style>
<title>Artboard 1</title>
<g>
	<path d="M7.8,99.8l4.1,4.7H8.6l-3.2-3.9v3.9H2.7V89.9h2.7v9.1l3-3.4h3.3L7.8,99.8z"/>
	<path d="M24.8,100.1c0,2.6-2.1,4.6-5,4.6c-2.8,0-4.9-2-4.9-4.6s2.1-4.7,4.9-4.7C22.7,95.3,24.8,97.3,24.8,100.1z M17.7,100
		c0,1.3,0.9,2.3,2.2,2.3c1.2,0,2.1-1,2.1-2.3c0-1.3-0.9-2.4-2.1-2.4C18.6,97.6,17.7,98.7,17.7,100z"/>
	<path d="M31.8,96.7c0.9-1,1.7-1.3,2.9-1.3c1.3,0,2.4,0.6,2.8,1.6c0.2,0.6,0.3,1.3,0.3,2.5v5.1h-2.7v-4.8c0-1.4-0.5-2-1.5-2
		c-0.6,0-1.1,0.2-1.4,0.6c-0.3,0.3-0.4,0.7-0.4,1.3v4.8h-2.7v-8.9h2.7V96.7z"/>
	<path d="M46.7,98c-0.3-0.5-0.5-0.8-0.9-0.8S45,97.6,45,98c0,0.4,0.3,0.7,1.3,1c1.1,0.4,1.3,0.5,1.7,0.8c0.6,0.4,0.9,1.1,0.9,1.9
		c0,1.7-1.4,2.9-3.4,2.9c-1.7,0-2.7-0.6-3.4-2.3l2.1-0.7c0.3,0.7,0.7,1,1.3,1c0.4,0,0.7-0.3,0.7-0.7c0-0.5-0.2-0.6-1.4-1
		c-1.7-0.6-2.4-1.4-2.4-2.7c0-1.7,1.4-2.9,3.3-2.9c1.5,0,2.5,0.6,3,2L46.7,98z"/>
	<path d="M56.4,95.5h1.6v2.1h-1.6v6.8h-2.7v-6.8h-0.9v-2.1h0.9v-2.7h2.7V95.5z"/>
	<path d="M67.6,98.3c-0.5-0.2-0.7-0.3-1-0.3c-0.6,0-1.2,0.4-1.6,0.9c-0.2,0.4-0.3,0.9-0.3,1.7v3.9H62v-8.9h2.7v1.4
		c0.7-0.9,1.7-1.4,2.9-1.6V98.3z"/>
	<path d="M80.2,100.3c0,1.3-0.2,2.1-0.6,2.8c-0.6,0.9-2.1,1.5-3.6,1.5c-1.6,0-3.1-0.6-3.8-1.7c-0.4-0.7-0.6-1.4-0.6-2.7v-4.7h2.7
		v4.5c0,0.8,0.1,1.2,0.3,1.6c0.2,0.5,0.8,0.8,1.4,0.8c0.6,0,1.2-0.3,1.4-0.8c0.1-0.3,0.2-0.8,0.2-1.6v-4.4h2.7V100.3z"/>
	<path d="M90.1,99.8l4.1,4.7h-3.3l-3.2-3.9v3.9h-2.7V89.9h2.7v9.1l3-3.4h3.3L90.1,99.8z"/>
	<path d="M101.1,95.5h1.6v2.1h-1.6v6.8h-2.7v-6.8h-0.9v-2.1h0.9v-2.7h2.7V95.5z"/>
	<path d="M109.9,108.5h-2.7l2.3-4.8l-3.8-8.1h3l2.2,5.2l2.4-5.2h2.6L109.9,108.5z"/>
	<path d="M130.1,104.4h-2.6l-1.5-4.6l-1.6,4.6h-2.5l-3.1-8.9h2.7l1.7,5.3l1.9-5.3h1.7l1.9,5.4l1.8-5.4h2.7L130.1,104.4z"/>
	<path d="M139.9,96.7c0.9-1,1.7-1.3,2.9-1.3c1.3,0,2.4,0.6,2.8,1.6c0.2,0.6,0.3,1.3,0.3,2.5v5.1h-2.7v-4.8c0-1.4-0.5-2-1.5-2
		c-0.6,0-1.1,0.2-1.4,0.6c-0.3,0.3-0.4,0.7-0.4,1.3v4.8h-2.7v-8.9h2.7V96.7z"/>
	<path d="M153.5,92.2c0,0.9-0.7,1.5-1.6,1.5s-1.6-0.7-1.6-1.6c0-0.9,0.7-1.6,1.6-1.6S153.5,91.3,153.5,92.2z M153.3,104.4h-2.7v-8.9
		h2.7V104.4z"/>
	<path d="M160.3,100.5c0.3,1.3,1,2,2.2,2c0.9,0,1.5-0.4,2.2-1.4l1.9,1.2c-1,1.6-2.3,2.3-4.1,2.3c-2.8,0-4.7-1.9-4.7-4.8
		c0-2.7,1.8-4.6,4.5-4.6c2.8,0,4.4,1.9,4.5,5.2H160.3z M164,98.8c-0.3-1-0.9-1.5-1.8-1.5c-1,0-1.5,0.5-1.9,1.5H164z"/>
</g>
<path d="M40.1,8.2v64.7c0,0.6,0.5,1.2,1.1,1.2l38.4,4.3c1,0.2,2,0.2,3.1,0l38.4-4.3c0.6-0.1,1.1-0.6,1.1-1.2V8.2
	c0-0.4-0.1-0.7-0.4-0.9c-0.3-0.3-0.6-0.4-1-0.3L116,7.6V0.2c0-0.3-0.1-0.7-0.5-0.9l-0.1-0.1c-0.3-0.2-0.7-0.3-1-0.1l-29,10.7
	c-1.5,0.5-2.9,0.7-4.2,0.7c-1.3,0-2.8-0.3-4.2-0.7L47.9-0.9C47.6-1,47.1-1,46.8-0.8c-0.3,0.3-0.5,0.6-0.5,1v7.3L41.4,7
	c-0.1,0-0.2,0-0.2,0c-0.3,0-0.5,0.1-0.8,0.3C40.2,7.5,40.1,7.8,40.1,8.2z M115.3,66.1c0.5-0.2,0.8-0.6,0.8-1.2V10l3.7-0.4v62.1
	L91.2,75L115.3,66.1z M48.7,2l27.4,10.1c1.1,0.4,2.2,0.6,3.3,0.8l3.5,0c1.1-0.2,2.2-0.3,3.3-0.8L113.6,2v62L85.3,74.4
	c-1.4,0.5-2.8,0.7-4.2,0.7c-1.4,0-2.8-0.2-4.2-0.7L48.7,64V2z M42.5,9.6l3.7,0.4v55c0,0.5,0.3,1,0.8,1.2l24,8.9l-28.6-3.2V9.6z"/>
<rect x="79.8" y="12.5" width="2.8" height="63.3"/>
<polygon class="st0" points="132.2,38.8 132.2,38.8 132.2,12.7 79.8,38.8 79.8,38.8 79.8,38.8 79.8,38.8 79.8,38.8 132.2,64.8 "/>
<rect x="77.4" y="35" transform="matrix(0.8923 -0.4515 0.4515 0.8923 -7.501 41.0423)" class="st1" width="9.8" height="2.4"/>
<rect x="81" y="36.4" transform="matrix(0.4515 -0.8923 0.8923 0.4515 8.2782 96.027)" class="st1" width="2.4" height="9.8"/>
</svg>
