<svg id="Layer_1" data-name="Layer 1" xmlns="http://www.w3.org/2000/svg" viewBox="0 0 170 110"><defs><style>.cls-1{font-size:20.26px;font-family:FuturaNo2DOT-DemBol, Futura No2 D OT;font-weight:700;letter-spacing:0.12em;}.cls-2{letter-spacing:0.15em;}.cls-3{letter-spacing:0.16em;}.cls-4{fill:#f2224a;}.cls-5{fill:#fff;}</style></defs><title>Artboard 1</title><text class="cls-1" transform="translate(1.59 105.44)">k<tspan class="cls-2" x="12.54" y="0">onstruktywn</tspan><tspan class="cls-3" x="147.92" y="0">i</tspan><tspan class="cls-2" x="155.42" y="0">e</tspan></text><path d="M39.78,9.21V73.88a1.29,1.29,0,0,0,1.12,1.24l38.45,4.25a9.83,9.83,0,0,0,3.14,0l38.37-4.25A1.28,1.28,0,0,0,122,73.88V9.21a1,1,0,0,0-.42-.91,1.13,1.13,0,0,0-1-.34l-4.87.61V1.24a1,1,0,0,0-.5-.94L115.1.23a1,1,0,0,0-1-.11l-29,10.65a13,13,0,0,1-4.17.74,12.78,12.78,0,0,1-4.16-.74L47.65.05a1.54,1.54,0,0,0-1.13.13,1.4,1.4,0,0,0-.54,1V8.47L41.14,8l-.21,0a1.3,1.3,0,0,0-.82.35A1.28,1.28,0,0,0,39.78,9.21ZM115,67.09a1.2,1.2,0,0,0,.8-1.19V11l3.72-.37v62.1L90.93,76ZM48.46,3l27.38,10.1a15.6,15.6,0,0,0,3.34.77h3.47a15.81,15.81,0,0,0,3.26-.76L113.3,3V65L85.05,75.44a13.05,13.05,0,0,1-8.41,0L48.46,65Zm-6.2,7.53,3.72.37v55a1.28,1.28,0,0,0,.81,1.19l24,8.87-28.57-3.2Z"/><rect x="79.51" y="13.54" width="2.81" height="63.26"/><polygon class="cls-4" points="131.93 39.76 131.93 39.76 131.96 13.68 79.52 39.76 79.51 39.76 79.52 39.76 79.51 39.77 79.53 39.77 131.96 65.82 131.93 39.76"/><rect class="cls-5" x="77.08" y="36.02" width="9.78" height="2.43" transform="translate(-7.98 41.02) rotate(-26.84)"/><rect class="cls-5" x="80.75" y="37.39" width="2.43" height="9.78" transform="translate(7.23 96.33) rotate(-63.16)"/></svg>