<?xml version="1.0" encoding="utf-8"?>
<!-- Generator: Adobe Illustrator 21.1.0, SVG Export Plug-In . SVG Version: 6.00 Build 0)  -->
<svg version="1.1" id="Layer_1" xmlns="http://www.w3.org/2000/svg" xmlns:xlink="http://www.w3.org/1999/xlink" x="0px" y="0px"
	 viewBox="0 0 95 80" style="enable-background:new 0 0 95 80;" xml:space="preserve">
<style type="text/css">
	.st0{fill:#F2224A;}
	.st1{fill:#FFFFFF;}
</style>
<title>Artboard 1</title>
<path d="M2.3,9.2v64.7c0,0.6,0.5,1.2,1.1,1.2l38.5,4.2c1,0.2,2.1,0.2,3.1,0l38.4-4.2c0.6-0.1,1.1-0.6,1.1-1.2V9.2
	c0-0.4-0.1-0.7-0.4-0.9c-0.3-0.3-0.6-0.4-1-0.3l-4.9,0.6V1.2c0-0.4-0.2-0.7-0.5-0.9l-0.1-0.1c-0.3-0.2-0.7-0.3-1-0.1l-29,10.6
	c-1.3,0.5-2.7,0.7-4.2,0.7c-1.4,0-2.8-0.3-4.2-0.7L10.2,0.1C9.8-0.1,9.4,0,9,0.2c-0.3,0.2-0.5,0.6-0.5,1v7.3L3.6,8H3.4
	C3.1,8,2.8,8.1,2.6,8.4C2.4,8.6,2.3,8.9,2.3,9.2z M77.5,67.1c0.5-0.2,0.8-0.7,0.8-1.2V11l3.7-0.4v62.1L53.4,76L77.5,67.1z M11,3
	l27.4,10.1c1.1,0.4,2.2,0.6,3.3,0.8h3.5c1.1-0.1,2.2-0.4,3.3-0.8L75.8,3v62L47.6,75.4c-2.7,0.9-5.7,0.9-8.4,0L11,65V3z M4.8,10.5
	l3.7,0.4v55c0,0.5,0.3,1,0.8,1.2l24,8.9L4.7,72.8L4.8,10.5z"/>
<rect x="42" y="13.5" width="2.8" height="63.3"/>
<polygon class="st0" points="94.4,39.8 94.4,39.8 94.5,13.7 42,39.8 42,39.8 42,39.8 42,39.8 42,39.8 94.5,65.8 "/>
<rect x="39.6" y="36" transform="matrix(0.8923 -0.4515 0.4515 0.8923 -12.0204 24.0899)" class="st1" width="9.8" height="2.4"/>
<rect x="43.2" y="37.4" transform="matrix(0.4515 -0.8923 0.8923 0.4515 -13.3416 62.8656)" class="st1" width="2.4" height="9.8"/>
</svg>
